<?xml version="1.0" standalone="no"?><!DOCTYPE svg PUBLIC "-//W3C//DTD SVG 1.1//EN" "http://www.w3.org/Graphics/SVG/1.1/DTD/svg11.dtd"><svg t="1528365224064" class="icon" style="" viewBox="0 0 1024 1024" version="1.1" xmlns="http://www.w3.org/2000/svg" p-id="1907" xmlns:xlink="http://www.w3.org/1999/xlink" width="200" height="200"><defs><style type="text/css"></style></defs><path d="M544.56312 1023.978003h-389.753564c-51.093913 0-92.788945-42.094985-92.788945-93.988802v-836.000399c0-51.793829 41.795021-93.988802 92.988921-93.988802h701.216457c51.393877 0 92.988921 42.194973 92.988921 94.188778v463.744749c0 18.79776-15.198189 34.095938-34.095938 34.095938s-34.095938-15.198189-34.095938-34.095938v-463.544773c0-14.298296-11.198666-25.896915-24.797045-25.896914h-701.216457c-13.698368 0-24.797046 11.49863-24.797046 25.696938v836.000399c0 14.398285 10.798713 25.696938 24.497082 25.696938h389.753564c18.79776 0 34.095938 15.198189 34.095938 34.095938 0 18.79776-15.098201 33.99595-33.99595 33.99595zM768.936388 337.159831h-526.537268c-18.79776 0-34.095938-15.198189-34.095937-34.095938s15.198189-34.095938 34.095937-34.095938h526.537268c18.79776 0 34.095938 15.198189 34.095938 34.095938s-15.198189 34.095938-34.095938 34.095938zM534.864276 516.338483h-292.465156c-18.79776 0-34.095938-15.198189-34.095937-34.095938s15.198189-34.095938 34.095937-34.095937h292.465156c18.79776 0 34.095938 15.198189 34.095938 34.095937s-15.198189 34.095938-34.095938 34.095938zM739.639879 964.285114c-115.586229 0-209.575031-95.788588-209.575031-213.27459 0-18.79776 15.198189-34.095938 34.095938-34.095938 18.79776 0 34.095938 15.198189 34.095937 34.095938 0 79.99047 63.492435 145.082715 141.283168 145.082715 19.897629 0 39.095342-4.1995 57.193186-12.398523 17.197951-7.799071 37.395545-0.199976 45.194615 16.897987 7.799071 17.197951 0.199976 37.395545-16.897987 45.194615-26.896795 12.198547-55.593377 18.497796-85.389826 18.497796z m175.579081-179.178652c-18.79776 0-34.095938-15.198189-34.095938-34.095938 0-79.99047-63.492435-145.082715-141.283167-145.082715-18.697772 0-36.995592 3.699559-54.093555 10.99869-17.397927 7.399118-37.395545-0.699917-44.794663-17.997856-7.399118-17.397927 0.699917-37.395545 17.997855-44.794663 25.696938-10.898702 52.893698-16.398046 80.890363-16.398046 115.586229 0 209.575031 95.788588 209.575031 213.27459-0.099988 18.79776-15.398165 34.095938-34.195926 34.095938zM681.146848 665.620698h-58.593019c-11.798594 0-22.697296-6.099273-28.896558-16.098083-6.199261-9.998809-6.79919-22.397332-1.699797-33.096056l29.296509-59.792877c5.799309-11.798594 17.597903-19.097725 30.596355-19.097724 13.098439 0 24.997022 7.399118 30.596355 19.097724l29.296509 59.792877c5.199381 10.598737 4.599452 22.99726-1.699797 33.096056-6.099273 10.098797-17.197951 16.098082-28.896557 16.098083zM826.929479 973.683995h-1.199857c-11.798594-0.399952-22.597308-6.79919-28.396617-16.997975l-29.296509-50.593972c-5.899297-10.198785-6.099273-22.697296-0.599929-33.096057 5.499345-10.398761 16.098082-17.197951 27.796688-17.997856l66.39209-4.599452c12.998451-0.799905 25.296986 5.799309 31.8962 16.997975 6.499226 11.298654 5.999285 25.296986-1.199857 36.095699l-37.09558 55.193425c-6.399238 9.39888-16.897987 14.998213-28.296629 14.998213z" p-id="1908" fill="#ffffff"></path></svg>