<?xml version="1.0" standalone="no"?><!DOCTYPE svg PUBLIC "-//W3C//DTD SVG 1.1//EN" "http://www.w3.org/Graphics/SVG/1.1/DTD/svg11.dtd"><svg t="1528423668364" class="icon" style="" viewBox="0 0 1024 1024" version="1.1" xmlns="http://www.w3.org/2000/svg" p-id="35257" xmlns:xlink="http://www.w3.org/1999/xlink" width="200" height="200"><defs><style type="text/css"></style></defs><path d="M102.101911 813.602106" p-id="35258" fill="#ffffff"></path><path d="M933.901471 194.265472c-12.799514-12.458753-28.1532-18.952654-46.032406-18.952654l-65.497737 0 0-47.856961c0-21.951965-8.176217-40.887222-24.020066-56.362682-15.879666-15.45704-35.30918-23.432689-57.81373-23.432689l-32.742728 0c-22.523993 0-41.951461 7.975649-57.809637 23.432689-15.880689 15.47546-24.054859 34.410718-24.054859 56.362682l0 47.856961L429.503613 175.312818l0-47.856961c0-21.951965-8.18952-40.887222-24.036439-56.362682-15.874549-15.45704-35.305087-23.432689-57.81373-23.432689l-32.739659 0c-22.506597 0-41.953508 7.975649-57.81373 23.432689-15.860223 15.47546-24.036439 34.410718-24.036439 56.362682l0 47.856961-65.48034 0c-17.917068 0-33.249265 6.493901-46.050826 18.952654-12.782118 12.459776-19.429515 27.438932-19.429515 44.874023L102.102934 877.444133c0 17.435091 6.64842 32.397874 19.429515 44.858674 12.801561 12.458753 28.133757 18.952654 46.050826 18.952654l720.28579 0c17.882276 0 33.233915-6.495948 46.032406-18.952654 12.785188-12.4608 19.427468-27.423583 19.427468-44.858674L953.328939 239.139495C953.330986 221.704404 946.686658 206.725248 933.901471 194.265472zM335.379908 793.999652 188.049399 793.999652 188.049399 634.431423l147.33051 0L335.379908 793.999652zM335.379908 459.249589 188.049399 459.249589 188.049399 315.659263l147.33051 0L335.379908 459.249589zM609.576851 793.999652 445.874465 793.999652 445.874465 634.431423l163.702386 0L609.576851 793.999652zM609.576851 459.249589 445.874465 459.249589 445.874465 315.659263l163.702386 0L609.576851 459.249589zM867.402941 793.999652 720.071408 793.999652 720.071408 634.431423l147.331533 0L867.402941 793.999652zM867.402941 459.249589 720.071408 459.249589 720.071408 315.659263l147.331533 0L867.402941 459.249589z" p-id="35259" fill="#ffffff"></path><path d="M953.330986 813.602106" p-id="35260" fill="#ffffff"></path></svg>