<?xml version="1.0" standalone="no"?><!DOCTYPE svg PUBLIC "-//W3C//DTD SVG 1.1//EN" "http://www.w3.org/Graphics/SVG/1.1/DTD/svg11.dtd"><svg t="1528421395346" class="icon" style="" viewBox="0 0 1024 1024" version="1.1" xmlns="http://www.w3.org/2000/svg" p-id="18470" xmlns:xlink="http://www.w3.org/1999/xlink" width="200" height="200"><defs><style type="text/css"></style></defs><path d="M937.375378 853.050083v42.987406c0 70.679293-57.283218 127.962511-127.962511 127.962511H212.487748c-70.679293 0-127.962511-57.283218-127.962511-127.962511v-42.687494-0.299912c-35.389632-0.899736-63.781314-29.791272-63.781314-65.380845v-65.580787c0-36.189398 29.291419-65.580787 65.380845-65.580787h3.998829c45.686615-2.499268 224.634189-47.186176 224.634189-130.761691 0-85.974812-130.66172-108.468222-130.66172-294.813629C184.096066-31.190862 510.700381 1.499561 510.700381 1.499561s326.604315-32.790393 326.604315 229.332812c0 186.245436-130.66172 208.838817-130.66172 294.813629 0 83.575515 178.947574 128.362394 224.634189 130.761691h4.998535c36.089427 0 65.380845 29.391389 65.380846 65.580787v65.580787c-0.099971 35.789515-28.791565 64.781021-64.281168 65.480816z m-767.375183 64.281168c0 11.796544 9.497218 21.293762 21.293762 21.293761H830.90657c11.796544 0 21.293762-9.497218 21.293762-21.293761v-63.981256H170.000195v63.981256z m595.725471-213.137558c-164.451821-58.582837-167.051059-231.632139-106.068925-298.212633 60.982134-66.580494 127.262716-135.760226 84.875134-234.331348-42.387582-98.471151-233.331641-85.175046-233.331641-85.175046v-0.699795s-191.843796-13.296105-234.531289 85.275017 23.992971 167.950796 85.275017 234.531289 58.682808 239.829737-106.568779 298.512546C170.100166 725.387484 92.822806 706.792932 106.11891 768.074978h808.263205c13.196134-61.282046-63.781314-42.587523-148.656449-63.881285z m-712.291321 148.956361c-5.798301 0-10.296983-0.599824-14.295811-1.499561 4.698623 0.799766 9.397247 1.499561 14.295811 1.499561z" p-id="18471" fill="#ffffff"></path></svg>