<?xml version="1.0" standalone="no"?><!DOCTYPE svg PUBLIC "-//W3C//DTD SVG 1.1//EN" "http://www.w3.org/Graphics/SVG/1.1/DTD/svg11.dtd"><svg t="1528420311327" class="icon" style="" viewBox="0 0 1035 1024" version="1.1" xmlns="http://www.w3.org/2000/svg" p-id="7946" xmlns:xlink="http://www.w3.org/1999/xlink" width="202.1484375" height="200"><defs><style type="text/css"></style></defs><path d="M1018.339274 561.730184c-0.025568-18.356573-14.927435-33.217532-33.284008-33.191964l-0.001023 0c-18.356573 0.025568-33.216509 14.927435-33.190941 33.284008l0.464309 334.584815c0.009204 6.545326-2.574154 12.744978-7.272471 17.45659-4.628773 4.643091-10.707745 7.235654-17.14671 7.319516-0.096134 0.001023-0.192269 0.001023-0.288403 0.002045l-830.507837 1.152591c-6.545326 0.009204-12.743955-2.574154-17.45659-7.272471-4.711612-4.698317-7.311334-10.89081-7.320539-17.436136l-1.056457-761.564073c-0.018409-13.545758 10.907173-24.599178 24.41509-24.775083 0.097157-0.001023 0.194314-0.002045 0.292494-0.002045l406.854424-0.563512c18.356573-0.025568 33.217532-14.927435 33.191964-33.284008l0 0c-0.025568-18.356573-14.927435-33.216509-33.284008-33.190941l-406.855446 0.563512c-50.238449 0.06034-91.160034 41.046356-91.091513 91.345144l1.056457 761.564073c0.033749 24.300547 9.571517 47.177486 26.856293 64.414194 17.284775 17.236708 40.187282 26.711068 64.488852 26.678342l830.507837-1.152591c0.362038-0.001023 0.723054-0.003068 1.085092-0.008182 23.896578-0.310903 46.349093-9.821058 63.330124-26.848111 17.236708-17.285798 26.710045-40.187282 26.677319-64.488852L1018.339274 561.730184z" p-id="7947" fill="#ffffff"></path><path d="M353.866938 651.893078l6.75805 6.73555c12.249988 12.209079 32.263346 12.17533 44.472425-0.074658L984.647207 77.049783c12.209079-12.249988 12.17533-32.263346-0.074658-44.472425l-6.75805-6.73555c-12.249988-12.209079-32.263346-12.17533-44.472425 0.074658L353.79228 607.420653C341.582178 619.671663 341.615928 639.683999 353.866938 651.893078z" p-id="7948" fill="#ffffff"></path></svg>