<?xml version="1.0" standalone="no"?><!DOCTYPE svg PUBLIC "-//W3C//DTD SVG 1.1//EN" "http://www.w3.org/Graphics/SVG/1.1/DTD/svg11.dtd"><svg t="1528366009428" class="icon" style="" viewBox="0 0 1024 1024" version="1.1" xmlns="http://www.w3.org/2000/svg" p-id="2876" xmlns:xlink="http://www.w3.org/1999/xlink" width="200" height="200"><defs><style type="text/css"></style></defs><path d="M797.93152 637.5936a31.07328 31.07328 0 0 1-16.45568-4.66944c-6.9632-4.30592-11.7504-10.98752-13.48608-18.81088a28.75392 28.75392 0 0 1 4.08576-22.15424c31.63136-48.26112 48.35328-104.17152 48.35328-161.68448 0-166.144-139.01824-301.312-309.89312-301.312-170.89024 0-309.91872 135.168-309.91872 301.312 0 16.384-13.75232 29.71648-30.65344 29.71648-16.90624 0-30.65344-13.32736-30.65344-29.71136 0-198.912 166.53312-360.73984 371.2256-360.73984 204.67712 0 371.2 161.82784 371.2 360.73984 0 68.8128-20.0192 135.7312-57.89184 193.536-5.64736 8.6272-15.3344 13.77792-25.91232 13.77792z m-281.9072-16.7168c-12.21632 0-22.15424-9.6256-22.15424-21.45792v-75.96544H428.32384c-12.21632 0-22.15424-9.6256-22.15424-21.4528 0-11.83232 9.93792-21.4528 22.15424-21.4528H493.8752V426.02496H428.32384c-12.21632 0-22.15424-9.6256-22.15424-21.4528 0-11.83232 9.93792-21.46304 22.15424-21.46304H493.8752v-27.0848l0.02048-0.07168c0.09216-0.29696 0.22528-0.74752 0.26112-1.31584l0.08192-1.3312-82.11968-79.81568a20.96128 20.96128 0 0 1 0-30.27968c4.18816-4.0704 9.76384-6.31296 15.6928-6.31296s11.50464 2.24256 15.69792 6.31296l72.89856 70.8608 72.15616-70.13376a22.33856 22.33856 0 0 1 15.68768-6.31808c5.9392 0 11.50976 2.24256 15.70304 6.31808a20.95616 20.95616 0 0 1 0 30.27456c-0.01024 0.01024-20.23424 19.82976-40.45824 39.69024-10.112 9.92768-20.224 19.8656-27.80672 27.3408-3.79392 3.7376-6.95808 6.8608-9.1648 9.05216-4.33664 4.3008-4.33664 4.3008-4.33664 5.56032v27.25376h65.54112c12.21632 0 22.15936 9.6256 22.15936 21.45792s-9.94304 21.45792-22.15936 21.45792h-65.54112v54.51264h65.54112c12.21632 0 22.15936 9.6256 22.15936 21.4528 0 11.83232-9.94304 21.4528-22.15936 21.4528h-65.54112v75.97056c0 11.8272-9.93792 21.4528-22.15936 21.4528z m50.08896 329.91232v-0.39936c-0.768 0-76.83072-0.14848-112.0256-0.3328-10.5984-0.05632-35.90144-3.65056-52.64384-8.19712-39.59296-10.752-99.4816-32.06656-159.93344-72.56576-73.3696-49.14688-128.13824-113.4848-162.76992-191.232-8.91392-20.0192-17.152-85.6576 7.38304-121.984 11.63264-17.18784 29.30176-26.65472 49.7664-26.65472 26.9312 0 56.48384 15.98464 92.99968 50.304 19.88608 18.70848 34.432 37.30432 48.50176 55.28576l0.1536 0.19968c46.1312 59.0848 85.96992 110.11072 316.27264 124.16l6.08256 0.36864-3.54304-4.95616c-13.02528-18.20672-21.9648-31.24224-26.56256-38.7328-11.09504-18.2272-15.39584-48.512-2.13504-71.09632 10.1888-17.41824 29.07648-27.40224 51.82976-27.40224 27.66336 0 63.1296 14.30528 108.416 43.73504l0.7168 0.47104h0.1536l0.3072 0.1536c25.66144 13.50656 115.7632 58.83904 197.63712 75.17184 14.1824 2.82624 24.4736 15.06304 24.4736 29.10208v154.88c0 16.384-13.75232 29.71648-30.65344 29.71648H566.1184z m-433.024-321.05984c-0.41984 1.88416-2.56 12.9536 1.98656 24.90368l0.06144 0.1536c65.40288 146.82112 201.49248 205.79328 276.79232 227.87584l0.11264 0.03072c34.33984 8.56576 96.38912 8.66816 99.01568 8.66816h378.8288v-101.62176l-2.176-0.5632c-75.22304-19.34336-149.44256-55.33184-177.8688-69.90848a627.1744 627.1744 0 0 1-14.0288-7.38816c-17.536-11.33056-40.63232-20.87936-42.17344-21.50912-4.75648-2.1504-8.7552-3.23584-11.8784-3.23584-4.52608 0-6.42048 2.304-7.1424 3.6864-2.00704 3.80928-0.384 9.57952 4.8128 17.16224 0.32256 0.47104 32.57344 47.80544 46.60224 66.57024 6.88128 9.21088 7.76192 21.18144 2.304 31.24224-3.95776 7.2704-11.6736 15.92832-25.96352 15.92832-0.63488 0-1.28-0.01536-1.93536-0.0512-320.68608-8.37632-374.64064-77.43488-431.7696-150.54336-13.29152-17.04448-25.82016-33.1008-42.46528-48.74752-16.98816-15.96416-17.14688-15.96416-18.65728-15.96416h-1.85344c-3.5328-1.5872-7.0656-2.40128-10.46016-2.40128-12.13952 0-21.0176 10.32192-22.144 25.71264z" fill="#ffffff" p-id="2877"></path></svg>