<?xml version="1.0" standalone="no"?><!DOCTYPE svg PUBLIC "-//W3C//DTD SVG 1.1//EN" "http://www.w3.org/Graphics/SVG/1.1/DTD/svg11.dtd"><svg t="1528427134934" class="icon" style="" viewBox="0 0 1024 1024" version="1.1" xmlns="http://www.w3.org/2000/svg" p-id="57357" xmlns:xlink="http://www.w3.org/1999/xlink" width="200" height="200"><defs><style type="text/css"></style></defs><path d="M713.1 936.5h-457c-50 0-90.7-39.2-90.7-87.4V173.6c0-48.2 40.7-87.4 90.7-87.4h506.5c50 0 90.7 39.2 90.7 87.4v439.6c0 13.8-11.2 25-25 25s-25-11.2-25-25V173.6c0-20.6-18.3-37.4-40.7-37.4H256.1c-22.4 0-40.7 16.8-40.7 37.4v675.5c0 20.6 18.3 37.4 40.7 37.4h457c13.8 0 25 11.2 25 25s-11.2 25-25 25z" fill="#ffffff" p-id="57358"></path><path d="M422.6 340.4H316.1c-13.8 0-25-11.2-25-25s11.2-25 25-25h106.5c13.8 0 25 11.2 25 25s-11.2 25-25 25zM626.7 250.4H316.1c-13.8 0-25-11.2-25-25s11.2-25 25-25h310.6c13.8 0 25 11.2 25 25s-11.2 25-25 25zM518.5 813.4H316.1c-14 0-25.3-11.3-25.3-25.3s11.3-25.3 25.3-25.3h202.4c14 0 25.3 11.3 25.3 25.3s-11.3 25.3-25.3 25.3z" fill="#ffffff" p-id="57359"></path><path d="M493.5 686.5c-44.1 0-85.6-17.3-117.1-48.8-32.1-32.2-49.4-74.8-48.7-119.9 0.7-43.3 18-84 48.6-114.6 30.6-30.6 71.3-47.9 114.6-48.7h0.4c7.6 0 14.9 3.2 20.1 8.8 5 5.4 7.6 12.8 7.2 20.1l-6.8 121.9 115.9 56.5c6.6 3.2 11.7 8.9 14 15.9 2.4 7.2 1.7 15.1-1.9 21.7-28.6 52.7-83.7 86.1-143.7 87-0.9 0.1-1.7 0.1-2.6 0.1z m-26.4-279c-50.9 11.8-88.5 56.7-89.4 111.1-0.5 31.5 11.6 61.3 34.1 83.8 22.4 22.5 52.2 34.6 83.6 34.1 33.9-0.5 65.5-15.8 87-41.1L476 543.6c-9.2-4.6-15.1-14.2-15.1-24.6v-1.4l6.2-110.1z m128.7 168.1z" fill="#ffffff" p-id="57360"></path><path d="M664.8 547.9c-4.3 0-8.7-1-12.7-2.9l-0.4-0.2-98.9-49.6c-10.1-5.4-16.2-16.2-15.5-27.6l6.2-94.8c0.7-8 4.6-15.4 10.7-20.4 6-4.8 13.7-7.1 21.4-6.3 35.5 3.4 67.8 20.2 91.1 47.3 23.4 27.2 35.1 61.9 33 97.7-0.7 12.5-3.2 25-7.3 37-2.7 7.8-8.6 14.2-16.2 17.4-3.6 1.6-7.5 2.4-11.4 2.4zM588.2 457l61.7 30.9c2.2-39.8-22.2-74.8-58-87.5l-3.7 56.6z" fill="#ffffff" p-id="57361"></path><path d="M776.8 946.3c-98.1 0-178-79.9-178-178s79.9-178 178-178 178 79.9 178 178-79.9 178-178 178z m0-306c-70.6 0-128 57.4-128 128s57.4 128 128 128 128-57.4 128-128-57.4-128-128-128z" fill="#ffffff" p-id="57362"></path><path d="M783.7 770.7c-5.1 0-10.3-2-14.2-5.9l-46.7-47.1c-7.8-7.8-7.7-20.5 0.1-28.3 7.8-7.8 20.5-7.7 28.3 0.1l46.7 47.1c7.8 7.8 7.7 20.5-0.1 28.3-3.9 3.9-9 5.8-14.1 5.8z" fill="#ffffff" p-id="57363"></path><path d="M788.7 765.1c-5 0-10-1.9-13.9-5.6-8-7.7-8.2-20.3-0.5-28.3l40-41.5c7.7-8 20.3-8.2 28.3-0.5 8 7.7 8.2 20.3 0.5 28.3l-40 41.5c-3.9 4.1-9.2 6.1-14.4 6.1z" fill="#ffffff" p-id="57364"></path><path d="M833.7 780.4H731.9c-11 0-20-9-20-20s9-20 20-20h101.8c11 0 20 9 20 20s-9 20-20 20zM819.4 827.3h-76c-11 0-20-9-20-20s9-20 20-20h76c11 0 20 9 20 20s-9 20-20 20z" fill="#ffffff" p-id="57365"></path><path d="M781.4 871.7c-11 0-20-9-20-20v-95c0-11 9-20 20-20s20 9 20 20v95c0 11-9 20-20 20z" fill="#ffffff" p-id="57366"></path></svg>