<?xml version="1.0" standalone="no"?><!DOCTYPE svg PUBLIC "-//W3C//DTD SVG 1.1//EN" "http://www.w3.org/Graphics/SVG/1.1/DTD/svg11.dtd"><svg t="1528419964331" class="icon" style="" viewBox="0 0 1024 1024" version="1.1" xmlns="http://www.w3.org/2000/svg" p-id="6089" xmlns:xlink="http://www.w3.org/1999/xlink" width="200" height="200"><defs><style type="text/css"></style></defs><path d="M976.213333 40.96c-10.24-6.826667-23.893333-10.24-37.546666-3.413333l-887.466667 443.733333c-10.24 6.826667-17.066667 20.48-17.066667 30.72 0 13.653333 10.24 23.893333 20.48 30.72l204.8 78.506667c17.066667 6.826667 37.546667-3.413333 44.373334-20.48 6.826667-17.066667-3.413333-37.546667-20.48-44.373334l-133.12-51.2 631.466666-314.026666-395.946666 399.36c-6.826667 6.826667-10.24 13.653333-10.24 23.893333v341.333333c0 13.653333 10.24 27.306667 23.893333 34.133334h10.24c10.24 0 20.48-6.826667 27.306667-13.653334l163.84-228.693333 170.666666 71.68c3.413333 0 10.24 3.413333 13.653334 3.413333 6.826667 0 10.24 0 17.066666-3.413333 10.24-3.413333 13.653333-13.653333 17.066667-23.893333l170.666667-716.8c3.413333-13.653333-3.413333-27.306667-13.653334-37.546667zM443.733333 849.92V682.666667l92.16 37.546666-92.16 129.706667z m317.44-112.64L457.386667 614.4 894.293333 177.493333l-133.12 559.786667z" p-id="6090" fill="#ffffff"></path></svg>