<?xml version="1.0" standalone="no"?><!DOCTYPE svg PUBLIC "-//W3C//DTD SVG 1.1//EN" "http://www.w3.org/Graphics/SVG/1.1/DTD/svg11.dtd"><svg t="1528365264210" class="icon" style="" viewBox="0 0 1024 1024" version="1.1" xmlns="http://www.w3.org/2000/svg" p-id="2059" xmlns:xlink="http://www.w3.org/1999/xlink" width="200" height="200"><defs><style type="text/css"></style></defs><path d="M172.379543 137.637491h132.457916a79.904674 79.904674 0 0 1 19.797033-32.817626l0.08189-0.081891-0.08189 0.081891 0.08189-0.081891A78.962933 78.962933 0 0 1 380.565716 81.481067h24.587629a111.719141 111.719141 0 0 1 31.814467-51.591027 110.552201 110.552201 0 0 1 150.043904 0.020472 111.514415 111.514415 0 0 1 31.793994 51.591027h24.608101c21.700988 0 41.477548 8.905594 55.849334 23.256908l0.081891 0.08189-0.081891-0.08189 0.081891 0.08189c9.048902 9.069375 15.927706 20.308849 19.77656 32.817626h132.478388c30.913671 0 59.002119 12.631613 79.351913 32.981407s32.981407 48.438242 32.981407 79.351913v661.429725c0 61.786397-50.567396 112.33332-112.33332 112.33332H172.379543a111.985285 111.985285 0 0 1-79.351913-32.981406 111.985285 111.985285 0 0 1-32.981407-79.351914V249.970811c0-61.786397 50.546923-112.33332 112.33332-112.33332z m129.018514 45.449238H172.379543a67.068335 67.068335 0 0 0-66.884081 66.884082v661.429725c0 18.363949 7.533928 35.090088 19.653724 47.230357 12.119797 12.119797 28.845935 19.653725 47.230357 19.653725h679.220441a67.068335 67.068335 0 0 0 66.884082-66.884082V249.970811c0-18.363949-7.533928-35.090088-19.653725-47.230358a66.699828 66.699828 0 0 0-47.230357-19.653724h-128.998041v49.850853a78.962933 78.962933 0 0 1-23.256907 55.951698 79.024351 79.024351 0 0 1-55.951698 23.256907H380.586189a78.819625 78.819625 0 0 1-55.849334-23.256907h-0.081891a78.962933 78.962933 0 0 1-23.256907-55.951698V183.086729z" fill="#ffffff" p-id="2060"></path><path d="M380.565716 126.950778c-9.294574 0-17.729297 3.787437-23.809668 9.847335l-0.102363 0.08189a33.595586 33.595586 0 0 0-9.847335 23.809669v72.268383c0 9.253629 3.807909 17.688352 9.949698 23.830141h-0.102363c6.121316 6.121316 14.596985 9.929225 23.891559 9.929226h262.827622c9.253629 0 17.688352-3.807909 23.830141-9.929226 6.121316-6.121316 9.929225-14.55604 9.929225-23.809668V160.710144c0-9.315047-3.766964-17.74977-9.847335-23.809668l-0.08189-0.081891a33.616058 33.616058 0 0 0-23.830141-9.847335h-64.570675l-1.699228-20.9435a65.123436 65.123436 0 0 0-20.841137-42.705906 65.246271 65.246271 0 0 0-88.605542 0 65.205326 65.205326 0 0 0-20.820665 42.705906l-1.719701 20.9435H380.565716v-0.020472z" fill="#ffffff" p-id="2061"></path><path d="M264.83394 775.196129h494.311648c32.367228 0 32.428646 45.449238 0 45.449239H264.83394c-32.367228 0-32.449118-45.449238 0-45.449239zM264.83394 611.804071h494.311648c32.367228 0 32.428646 45.449238 0 45.449238H264.83394c-32.367228 0-32.449118-45.449238 0-45.449238zM264.83394 448.391539h494.311648c32.367228 0 32.428646 45.449238 0 45.449238H264.83394c-32.367228 0-32.449118-45.449238 0-45.449238z" fill="#ffffff" p-id="2062"></path></svg>