<?xml version="1.0" standalone="no"?><!DOCTYPE svg PUBLIC "-//W3C//DTD SVG 1.1//EN" "http://www.w3.org/Graphics/SVG/1.1/DTD/svg11.dtd"><svg t="1528424355493" class="icon" style="" viewBox="0 0 1024 1024" version="1.1" xmlns="http://www.w3.org/2000/svg" p-id="40691" xmlns:xlink="http://www.w3.org/1999/xlink" width="200" height="200"><defs><style type="text/css"></style></defs><path d="M397 291.5h230v56H397zM397 197.4h230v56H397z" fill="#ffffff" p-id="40692"></path><path d="M917 920.2H107c-40.3 0-73-32.7-73-73V437.3l149.7-113.1h136.4v56H202.5L90 465.2v382.1c0 9.4 7.6 17 17 17h810c9.4 0 17-7.6 17-17V465l-110.5-84.8H704.2v-56h138.3L990 437.4v409.8c0 40.3-32.7 73-73 73z" fill="#ffffff" p-id="40693"></path><path d="M192.7 480.9h638.6v56H192.7z" fill="#ffffff" p-id="40694"></path><path d="M740 536.8H284v-360c0-40.3 32.7-73 73-73h310c40.3 0 73 32.7 73 73v360z m-400-56h344v-304c0-9.4-7.6-17-17-17H357c-9.4 0-17 7.6-17 17v304z" fill="#ffffff" p-id="40695"></path></svg>