<?xml version="1.0" standalone="no"?><!DOCTYPE svg PUBLIC "-//W3C//DTD SVG 1.1//EN" "http://www.w3.org/Graphics/SVG/1.1/DTD/svg11.dtd"><svg t="1528366048264" class="icon" style="" viewBox="0 0 1024 1024" version="1.1" xmlns="http://www.w3.org/2000/svg" p-id="773" xmlns:xlink="http://www.w3.org/1999/xlink" width="200" height="200"><defs><style type="text/css"></style></defs><path d="M397.312 785.408c-11.264 0-22.016-7.68-24.576-19.456L244.224 260.096c-3.584-13.824 4.608-27.648 18.432-31.232l506.368-128.512c6.656-1.536 13.312-0.512 19.456 3.072 5.632 3.584 10.24 9.216 11.776 15.872l128.512 506.368c1.536 6.656 0.512 13.312-3.072 19.456-3.584 5.632-9.216 10.24-15.872 11.776l-506.368 128.512h-6.144z m-97.28-513.024l115.712 456.704 456.704-115.712-115.712-456.704-456.704 115.712z" p-id="774" fill="#ffffff"></path><path d="M475.136 633.856c-11.264 0-22.016-7.68-24.576-19.456-3.584-13.824 4.608-27.648 18.432-31.232l297.472-75.776c13.824-3.584 27.648 4.608 31.232 18.432 3.584 13.824-4.608 27.648-18.432 31.232L481.28 632.832c-2.048 1.024-4.096 1.024-6.144 1.024zM581.12 490.496c-11.264 0-22.016-7.68-24.576-19.456-3.584-13.824 4.608-27.648 18.432-31.232l163.84-41.472c13.824-3.584 27.648 4.608 31.232 18.432s-4.608 27.648-18.432 31.232l-163.84 41.472c-2.56 1.024-4.608 1.024-6.656 1.024zM318.976 1015.296c-57.344 0-103.936-46.592-103.936-103.936s46.592-103.936 103.936-103.936c57.344 0 103.936 46.592 103.936 103.936s-46.592 103.936-103.936 103.936z m0-156.672c-29.184 0-52.736 23.552-52.736 52.736s23.552 52.736 52.736 52.736c29.184 0 52.736-23.552 52.736-52.736s-23.552-52.736-52.736-52.736z" p-id="775" fill="#ffffff"></path><path d="M378.368 886.784c-11.264 0-22.016-7.68-24.576-19.456-3.584-13.824 4.608-27.648 18.432-31.232l535.552-136.192c13.824-3.584 27.648 4.608 31.232 18.432s-4.608 27.648-18.432 31.232L384.512 885.76c-2.048 1.024-4.096 1.024-6.144 1.024zM318.976 858.624c-11.264 0-21.504-7.68-24.576-18.944L156.672 328.192 55.808 269.312c-12.288-7.168-16.384-22.528-9.216-34.816s22.528-16.384 34.816-9.216l110.08 64c5.632 3.584 10.24 9.216 11.776 15.36l140.288 521.728c3.584 13.824-4.608 27.648-17.92 31.232-2.048 0.512-4.608 1.024-6.656 1.024z" p-id="776" fill="#ffffff"></path></svg>