<?xml version="1.0" standalone="no"?><!DOCTYPE svg PUBLIC "-//W3C//DTD SVG 1.1//EN" "http://www.w3.org/Graphics/SVG/1.1/DTD/svg11.dtd"><svg t="1535622096452" class="icon" style="" viewBox="0 0 1024 1024" version="1.1" xmlns="http://www.w3.org/2000/svg" p-id="1851" xmlns:xlink="http://www.w3.org/1999/xlink" width="200" height="200"><defs><style type="text/css"></style></defs><path d="M786.944 956.928H46.08c-14.336 0-25.6-11.264-25.6-25.6V69.12c0-14.336 11.264-25.6 25.6-25.6h514.048c6.656 0 13.312 2.56 17.92 7.68l226.816 226.816c4.608 4.608 7.68 11.264 7.68 17.92v635.392c0 14.336-11.264 25.6-25.6 25.6zM71.68 905.728h689.664v-599.04l-211.968-211.968H71.68v811.008z" p-id="1852" fill="#ffffff"></path><path d="M786.944 321.536h-226.816c-14.336 0-25.6-11.264-25.6-25.6V69.12c0-14.336 11.264-25.6 25.6-25.6s25.6 11.264 25.6 25.6v201.216h201.216c14.336 0 25.6 11.264 25.6 25.6s-11.264 25.6-25.6 25.6zM896 814.592c-6.656 0-13.312-2.56-17.92-7.68-10.24-10.24-10.24-26.112 0-36.352l75.776-75.776-75.776-76.288c-9.728-10.24-9.728-26.112 0-36.352 10.24-9.728 26.112-9.728 36.352 0l93.696 94.208c9.728 10.24 9.728 26.112 0 36.352l-93.696 93.696c-5.12 5.632-11.776 8.192-18.432 8.192zM540.16 401.92H232.448c-14.336 0-25.6-11.264-25.6-25.6s11.264-25.6 25.6-25.6h307.712c14.336 0 25.6 11.264 25.6 25.6s-11.264 25.6-25.6 25.6zM540.16 568.832H232.448c-14.336 0-25.6-11.264-25.6-25.6s11.264-25.6 25.6-25.6h307.712c14.336 0 25.6 11.264 25.6 25.6s-11.264 25.6-25.6 25.6z" p-id="1853" fill="#ffffff"></path><path d="M926.72 723.456h-307.2c-14.336 0-25.6-11.264-25.6-25.6s11.264-25.6 25.6-25.6h307.2c14.336 0 25.6 11.264 25.6 25.6s-11.264 25.6-25.6 25.6zM353.28 724.992H232.448c-14.336 0-25.6-11.264-25.6-25.6s11.264-25.6 25.6-25.6H353.28c14.336 0 25.6 11.264 25.6 25.6s-11.264 25.6-25.6 25.6z" p-id="1854" fill="#ffffff"></path></svg>