<?xml version="1.0" standalone="no"?><!DOCTYPE svg PUBLIC "-//W3C//DTD SVG 1.1//EN" "http://www.w3.org/Graphics/SVG/1.1/DTD/svg11.dtd"><svg t="1528366064963" class="icon" style="" viewBox="0 0 1030 1024" version="1.1" xmlns="http://www.w3.org/2000/svg" p-id="960" xmlns:xlink="http://www.w3.org/1999/xlink" width="201.171875" height="200"><defs><style type="text/css"></style></defs><path d="M998.912 981.504H35.84c-14.336 0-25.6-11.264-25.6-25.6V276.48c0-14.336 11.264-25.6 25.6-25.6h963.072c14.336 0 25.6 11.264 25.6 25.6v679.424c0 14.336-11.264 25.6-25.6 25.6zM61.44 930.304h911.872V302.08H61.44v628.224z" p-id="961" fill="#ffffff"></path><path d="M998.4 303.616H35.84c-10.24 0-19.456-6.144-23.552-15.36-4.096-9.216-2.048-20.48 5.12-27.648l146.944-155.136c4.608-5.12 11.776-8.192 18.432-8.192h659.968c6.656 0 13.312 2.56 17.92 7.68l155.648 155.136c7.168 7.168 9.728 18.432 5.632 28.16-4.096 9.216-13.312 15.36-23.552 15.36z m-903.168-51.2h841.216L832 148.48H194.048L95.232 252.416zM656.384 798.72H258.048c-14.336 0-25.6-11.264-25.6-25.6s11.264-25.6 25.6-25.6h398.336c61.952 0 112.128-50.176 112.128-112.128 0-61.952-50.176-112.128-112.128-112.128H258.048c-14.336 0-25.6-11.264-25.6-25.6s11.264-25.6 25.6-25.6h398.336c90.112 0 163.328 73.216 163.328 163.328S746.496 798.72 656.384 798.72z" p-id="962" fill="#ffffff"></path><path d="M350.208 615.936c-6.656 0-13.312-2.56-17.92-7.68l-92.16-92.672c-9.728-10.24-9.728-26.112 0-36.352l92.16-92.16c10.24-10.24 26.112-10.24 36.352 0s10.24 26.112 0 36.352L294.4 497.664 368.64 572.416c9.728 10.24 9.728 26.112 0 36.352-5.12 4.608-11.776 7.168-18.432 7.168z" p-id="963" fill="#ffffff"></path></svg>