<?xml version="1.0" standalone="no"?><!DOCTYPE svg PUBLIC "-//W3C//DTD SVG 1.1//EN" "http://www.w3.org/Graphics/SVG/1.1/DTD/svg11.dtd"><svg t="1528426972483" class="icon" style="" viewBox="0 0 1024 1024" version="1.1" xmlns="http://www.w3.org/2000/svg" p-id="55346" xmlns:xlink="http://www.w3.org/1999/xlink" width="200" height="200"><defs><style type="text/css"></style></defs><path d="M916.2 64 107.8 64C48.3 64 0 112.3 0 171.8l0 677.3C0 908.7 48.3 957 107.8 957l808.3 0c59.6 0 107.8-48.3 107.8-107.8L1023.9 171.8C1024 112.3 975.7 64 916.2 64zM960 849.2c0 24.2-19.7 43.8-43.8 43.8L107.8 893C83.7 893 64 873.3 64 849.2L64 171.8c0-24.2 19.7-43.8 43.8-43.8l808.3 0c24.2 0 43.8 19.7 43.8 43.8L959.9 849.2z" p-id="55347" fill="#ffffff"></path><path d="M575 288c0 17.7 14.3 32 32 32l179.4 0L543 561.9 408.8 424.2c-6-6.1-14.1-9.6-22.7-9.7-0.1 0-0.1 0-0.2 0-8.5 0-16.6 3.4-22.6 9.4L137.6 649.4c-12.5 12.5-12.5 32.8 0 45.3 6.3 6.3 14.4 9.4 22.6 9.4 8.2 0 16.4-3.1 22.6-9.4l202.8-202.6 134.2 137.6c6 6.1 14.1 9.6 22.7 9.7 8.5 0.1 16.8-3.3 22.8-9.3L832 364.9 832 545c0 17.7 14.3 32 32 32s32-14.3 32-32L896 256 607 256C589.3 256 575 270.3 575 288z" p-id="55348" fill="#ffffff"></path></svg>