<?xml version="1.0" standalone="no"?><!DOCTYPE svg PUBLIC "-//W3C//DTD SVG 1.1//EN" "http://www.w3.org/Graphics/SVG/1.1/DTD/svg11.dtd"><svg t="1528365180754" class="icon" style="" viewBox="0 0 1024 1024" version="1.1" xmlns="http://www.w3.org/2000/svg" p-id="2307" xmlns:xlink="http://www.w3.org/1999/xlink" width="200" height="200"><defs><style type="text/css"></style></defs><path d="M946.36606 392.604206c0 0-405.724719-285.306362-408.981111-287.47729-24.948685-17.350436-24.948685-17.350436-50.982634 1.085464L78.523657 392.604206c-13.025569 8.683712-14.111033 28.205077-4.341856 42.31591s29.290541 18.4359 41.230446 9.769176l28.205077-20.606829 0 474.057789c0 17.350436 14.111033 32.546933 32.546933 32.546933s32.546733-14.111033 32.546733-32.546933l0-517.459163 303.742263-214.802364 309.169583 218.041768 0 515.288235c0 17.350436 14.111033 32.546933 32.546933 32.546933 17.350436 0 32.546733-14.111033 32.546733-32.546933L886.716502 430.561271l21.692293 14.111033c13.025369 8.683712 30.375805 4.341856 41.230446-9.769176C960.476893 419.723619 957.2207 401.27093 946.36606 392.604206L946.36606 392.604206 946.36606 392.604206zM346.462794 637.765587c0 7.598248 5.42732 14.111033 14.111033 14.111033l309.169583 0c7.598248 0 14.111033-5.42732 14.111033-14.111033l0-28.205077c0-7.598248-5.42732-14.111033-14.111033-14.111033L360.573827 595.449477c-7.598248 0-14.111033 5.42732-14.111033 14.111033L346.462794 637.765587 346.462794 637.765587zM346.462794 744.072711c0 7.598248 5.42732 14.111033 14.111033 14.111033l309.169583 0c7.598248 0 14.111033-5.42732 14.111033-14.111033L683.854443 715.867634c0-7.598248-5.42732-14.111033-14.111033-14.111033L360.573827 701.756601c-7.598248 0-14.111033 5.42732-14.111033 14.111033L346.462794 744.072711 346.462794 744.072711zM360.573827 542.295915l309.169583 0c7.598248 0 14.111033-5.42732 14.111033-14.111033l0-28.205077c0-7.598248-5.42732-14.111033-14.111033-14.111033L360.573827 485.868773c-7.598248 0-14.111033 5.42732-14.111033 14.111033l0 28.205077C346.462794 534.714655 351.890115 542.295915 360.573827 542.295915L360.573827 542.295915zM346.462794 846.055167c0 7.598248 5.42732 14.111033 14.111033 14.111033l309.169583 0c7.598248 0 14.111033-5.42732 14.111033-14.111033l0-28.205077c0-7.598248-5.42732-14.111033-14.111033-14.111033L360.573827 803.739057c-7.598248 0-14.111033 5.42732-14.111033 14.111033L346.462794 846.055167 346.462794 846.055167z" p-id="2308" fill="#ffffff"></path></svg>