<?xml version="1.0" standalone="no"?><!DOCTYPE svg PUBLIC "-//W3C//DTD SVG 1.1//EN" "http://www.w3.org/Graphics/SVG/1.1/DTD/svg11.dtd"><svg t="1528423176768" class="icon" style="" viewBox="0 0 1024 1024" version="1.1" xmlns="http://www.w3.org/2000/svg" p-id="30133" xmlns:xlink="http://www.w3.org/1999/xlink" width="200" height="200"><defs><style type="text/css"></style></defs><path d="M245.028571 453.485714c-10.971429 0-18.285714-3.657143-25.6-10.971428-14.628571-14.628571-14.628571-36.571429 0-51.2l266.971429-266.971429c14.628571-14.628571 36.571429-14.628571 51.2 0s14.628571 36.571429 0 51.2l-266.971429 266.971429c-7.314286 7.314286-14.628571 10.971429-25.6 10.971428z" fill="#ffffff" p-id="30134"></path><path d="M782.628571 457.142857c-10.971429 0-18.285714-3.657143-25.6-10.971428l-270.628571-270.628572c-14.628571-14.628571-14.628571-36.571429 0-51.2s36.571429-14.628571 51.2 0l270.628571 270.628572c14.628571 14.628571 14.628571 36.571429 0 51.2-7.314286 7.314286-14.628571 10.971429-25.6 10.971428z" fill="#ffffff" p-id="30135"></path><path d="M512 768c-21.942857 0-36.571429-14.628571-36.571429-36.571429V219.428571c0-21.942857 14.628571-36.571429 36.571429-36.571428s36.571429 14.628571 36.571429 36.571428v512c0 21.942857-14.628571 36.571429-36.571429 36.571429z" fill="#ffffff" p-id="30136"></path><path d="M749.714286 899.657143h-475.428572c-62.171429 0-109.714286-47.542857-109.714285-109.714286v-47.542857c0-21.942857 14.628571-36.571429 36.571428-36.571429s36.571429 14.628571 36.571429 36.571429v47.542857c0 21.942857 14.628571 36.571429 36.571428 36.571429h475.428572c21.942857 0 36.571429-14.628571 36.571428-36.571429v-47.542857c0-21.942857 14.628571-36.571429 36.571429-36.571429s36.571429 14.628571 36.571428 36.571429v47.542857c0 62.171429-47.542857 109.714286-109.714285 109.714286z" fill="#ffffff" p-id="30137"></path></svg>