<?xml version="1.0" standalone="no"?><!DOCTYPE svg PUBLIC "-//W3C//DTD SVG 1.1//EN" "http://www.w3.org/Graphics/SVG/1.1/DTD/svg11.dtd"><svg t="1528421274231" class="icon" style="" viewBox="0 0 1024 1024" version="1.1" xmlns="http://www.w3.org/2000/svg" p-id="14210" xmlns:xlink="http://www.w3.org/1999/xlink" width="200" height="200"><defs><style type="text/css"></style></defs><path d="M981.3248 682.6496c23.466667 0 42.666667 19.2 42.666667 42.666667s-19.2 42.666667-42.666667 42.666666H145.536l183.765333 183.210667a42.7776 42.7776 0 0 1 0 60.330667 42.7776 42.7776 0 0 1-60.330666 0L12.458667 755.780267a42.4192 42.4192 0 0 1-12.416-30.336c0-0.042667-0.042667-0.085333-0.042667-0.128 0-2.005333 0.896-3.754667 1.152-5.717334 0.512-3.456 0.768-6.997333 2.090667-10.282666 6.4-15.573333 21.632-26.666667 39.424-26.666667h938.658133z m30.216533-414.446933a42.530133 42.530133 0 0 1 12.416 30.336c0 0.042667 0.042667 0.085333 0.042667 0.128 0 2.005333-0.896 3.754667-1.194667 5.717333-0.469333 3.498667-0.725333 6.997333-2.090666 10.282667-6.357333 15.573333-21.589333 26.658133-39.381334 26.658133H42.6752c-23.466667 0-42.666667-19.2-42.666667-42.666667s19.2-42.666667 42.666667-42.666666h835.754667L694.698667 72.789333c-16.597333-16.5888-16.597333-43.767467 0-60.3648 16.5888-16.554667 43.7248-16.554667 60.330666 0L1011.541333 268.202667z" p-id="14211" fill="#ffffff"></path></svg>