<?xml version="1.0" standalone="no"?><!DOCTYPE svg PUBLIC "-//W3C//DTD SVG 1.1//EN" "http://www.w3.org/Graphics/SVG/1.1/DTD/svg11.dtd"><svg t="1528424031833" class="icon" style="" viewBox="0 0 1024 1024" version="1.1" xmlns="http://www.w3.org/2000/svg" p-id="37916" xmlns:xlink="http://www.w3.org/1999/xlink" width="200" height="200"><defs><style type="text/css"></style></defs><path d="M512 930.944a31.552 31.552 0 0 1-22.848-9.6l-473.6-484.032a31.936 31.936 0 0 1-2.56-41.728L233.408 106.24a31.616 31.616 0 0 1 25.408-12.8h506.368c9.984 0 19.456 4.736 25.408 12.736l220.416 289.344a31.936 31.936 0 0 1-2.56 41.728l-473.6 484.032a31.36 31.36 0 0 1-22.848 9.664zM80.576 412.288L512 853.184l431.424-440.896-194.112-254.848H274.688L80.576 412.288z" fill="#ffffff" p-id="37917"></path><path d="M511.936 688.448a32.192 32.192 0 0 1-27.2-15.104l-176.128-282.88a32 32 0 0 1 54.336-33.792l148.928 239.36 148.992-239.36a32 32 0 1 1 54.336 33.792l-176.192 282.88a31.808 31.808 0 0 1-27.072 15.104z" fill="#ffffff" p-id="37918"></path></svg>