<?xml version="1.0" standalone="no"?><!DOCTYPE svg PUBLIC "-//W3C//DTD SVG 1.1//EN" "http://www.w3.org/Graphics/SVG/1.1/DTD/svg11.dtd"><svg t="1528366793906" class="icon" style="" viewBox="0 0 1024 1024" version="1.1" xmlns="http://www.w3.org/2000/svg" p-id="3260" xmlns:xlink="http://www.w3.org/1999/xlink" width="200" height="200"><defs><style type="text/css"></style></defs><path d="M691.335946 125.373429c-8.712429 0.298805-86.466304 4.152577-129.889279 47.276746-10.909467 10.828626-10.963703 28.415167-0.162706 39.298028 10.80202 10.909467 28.441772 10.909467 39.298028 0.162706 23.801079-23.611767 74.984808-30.531364 91.702562-31.18321 115.397217 0 209.271234 83.018785 209.271234 185.090509 0 182.620247-313.025273 417.943834-386.951983 470.947002C439.916776 784.314059 122.442168 549.69553 122.442168 366.017184c0-102.0707 93.874017-185.090509 209.270211-185.090509 61.361533 0 119.711476 24.561395 158.954245 66.138326l135.153166 162.346505c9.797134 11.724019 27.302833 13.433964 39.134299 3.582595 11.805884-9.824763 13.407358-27.356045 3.582595-39.135322L532.244578 210.238258c-50.831712-53.952796-123.917264-84.891436-200.531176-84.891436-146.036028 0-264.85211 107.959827-264.85211 240.670361 0 236.517785 414.796144 516.161786 432.43692 527.96767 4.695952 3.121084 10.06831 4.668323 15.442714 4.668323 5.454222 0 10.909467-1.601474 15.60542-4.803399 17.422811-11.83249 426.791339-292.50696 426.791339-527.83157C957.137685 233.30665 838.321602 125.346823 691.335946 125.373429z" p-id="3261" fill="#ffffff"></path></svg>