<?xml version="1.0" standalone="no"?><!DOCTYPE svg PUBLIC "-//W3C//DTD SVG 1.1//EN" "http://www.w3.org/Graphics/SVG/1.1/DTD/svg11.dtd"><svg t="1528424614774" class="icon" style="" viewBox="0 0 1024 1024" version="1.1" xmlns="http://www.w3.org/2000/svg" p-id="43132" xmlns:xlink="http://www.w3.org/1999/xlink" width="200" height="200"><defs><style type="text/css"></style></defs><path d="M896 768l0-73.024 0.384-0.192L896 693.888 896 394.496 896 394.048 896 377.856 896 375.616 896 313.984 896 254.72 896 254.272 896 218.752 896 192l-10.752 0-5.632 0-29.632 0-174.464 0L605.632 192 535.744 192 465.856 192 326.016 192 256.128 192 128 192l0 330.176 0 69.888 0 69.888 0 33.984L128 768l381.184 0L896 768zM832 550.464l-47.232-107.52L832 422.208 832 550.464zM733.888 256l-25.344 11.136L703.68 256 733.888 256zM493.952 256l38.784 88.384L415.552 395.84 354.176 256 493.952 256zM192 364.288l47.808 108.8L192 494.016 192 364.288zM411.136 704 349.888 564.48 291.264 590.272 341.248 704 192 704l0-0.256 124.992-54.912L291.264 590.272 192 633.856 192 563.968l132.096-58.048L214.336 256l69.888 0L382.72 480.192l58.624-25.728 175.808-77.248L591.36 318.592 563.84 256l69.888 0 41.472 95.488L832 282.368l0 69.888-131.072 57.792L830.528 704l-69.888 0-117.824-268.16L467.072 513.024 408.448 538.752 481.024 704 411.136 704zM609.984 520.128 690.752 704 550.912 704 492.8 571.648 609.984 520.128zM0 64l0 832 1024 0L1024 64 0 64zM960 832 64 832 64 128l896 0L960 832z" p-id="43133" fill="#ffffff"></path></svg>