<?xml version="1.0" standalone="no"?><!DOCTYPE svg PUBLIC "-//W3C//DTD SVG 1.1//EN" "http://www.w3.org/Graphics/SVG/1.1/DTD/svg11.dtd"><svg t="1528427810848" class="icon" style="" viewBox="0 0 1024 1024" version="1.1" xmlns="http://www.w3.org/2000/svg" p-id="60739" xmlns:xlink="http://www.w3.org/1999/xlink" width="200" height="200"><defs><style type="text/css"></style></defs><path d="M599.3 486.2h-11c-13.6 0-24.5-11-24.5-24.5 0-13.6 11-24.5 24.5-24.5h35.6c13.6 0 24.5 11 24.5 24.5V658c0 13.6-11 24.5-24.5 24.5s-24.5-11-24.5-24.5V486.2h-0.1zM427.7 556.6v-0.3c-0.1-0.8-0.1-1.7-0.1-2.5 0-5.7 1.9-11 5.1-15 2.2-2.9 5.1-5.3 8.5-7 1.8-0.9 3.8-1.6 5.8-2 4.4-1 8.7-1.6 13-1.8 9.9-3.3 16.7-12.8 16.7-23.3 0-9.7-9.5-18.4-22.1-18.4-8.1 0-15.2 3.7-19.1 9.3-7.7 11.1-23 13.9-34.2 6.1-11.1-7.7-13.9-23-6.1-34.2 13.1-18.9 35.4-30.3 59.4-30.3 38.9 0 71.2 29.8 71.2 67.5 0 15.4-4.8 30-13.2 42.1 15.5 13.7 25.5 33.8 25.5 56.1 0 44.4-37.4 79.8-83 79.8-31.1 0-59.4-16.7-73.6-42.9-6.5-11.9-2-26.8 9.9-33.3 11.9-6.5 26.8-2 33.3 9.9 5.6 10.4 17.3 17.2 30.4 17.2 19 0 33.9-14.1 33.9-30.7 0-16-15.5-28.9-31.1-25.2-13 3.1-26.1-4.8-29.5-17.7-0.4-1.2-0.6-2.3-0.7-3.4z" fill="#ffffff" p-id="60740"></path><path d="M804.8 312.2c-0.1-0.4-0.1-0.8-0.2-1.2-1.8-0.2-3.7-0.3-5.6-0.3L290.8 300c-30.3 0-54.9 24.6-54.9 54.9l12.1 446c0 1.3 0.1 2.6 0.1 3.9 0.4 0.1 0.8 0.2 1.2 0.2 2.9 0.5 6 0.8 9 0.8l506.9 2.5c28.1 0 50.9-22.8 50.9-50.9l-10.8-437.7c0-2.5-0.2-5-0.5-7.5z m0.6 461.5c0 14-11.3 25.3-25.3 25.3H320.4c-14 0-25.3-11.3-25.3-25.3V380.6c0-14 7.3-21.3 21.3-21.3h463.7c14 0 25.3 11.3 25.3 25.3v389.1z" fill="#ffffff" p-id="60741"></path><path d="M757.6 810.7H266.4c-35.5 0-64.3-28.8-64.3-64.3v-415c0-35.5 28.8-64.3 64.3-64.3h491.2c35.5 0 64.3 28.8 64.3 64.3v415c0 35.5-28.9 64.3-64.3 64.3zM266.4 315.1c-9 0-16.3 7.3-16.3 16.3v415c0 9 7.3 16.3 16.3 16.3h491.2c9 0 16.3-7.3 16.3-16.3v-415c0-9-7.3-16.3-16.3-16.3H266.4z" fill="#ffffff" p-id="60742"></path><path d="M377.2 367.7c-13.3 0-24-10.7-24-24V237.3c0-13.3 10.7-24 24-24s24 10.7 24 24v106.4c0 13.2-10.7 24-24 24zM646.8 367.7c-13.3 0-24-10.7-24-24V237.3c0-13.3 10.7-24 24-24s24 10.7 24 24v106.4c0 13.2-10.8 24-24 24z" fill="#ffffff" p-id="60743"></path></svg>