<?xml version="1.0" standalone="no"?><!DOCTYPE svg PUBLIC "-//W3C//DTD SVG 1.1//EN" "http://www.w3.org/Graphics/SVG/1.1/DTD/svg11.dtd"><svg t="1528424968806" class="icon" style="" viewBox="0 0 1260 1024" version="1.1" xmlns="http://www.w3.org/2000/svg" p-id="45025" xmlns:xlink="http://www.w3.org/1999/xlink" width="246.09375" height="200"><defs><style type="text/css"></style></defs><path d="M1155.282051 787.692308a39.384615 39.384615 0 0 1-39.384615 39.384615h-18.773333c-17.591795-67.767795-78.769231-118.153846-151.893334-118.153846-73.202872 0-134.380308 50.386051-151.972102 118.153846h-208.029539c-17.618051-67.767795-78.769231-118.153846-151.91959-118.153846-73.229128 0-134.380308 50.386051-151.998359 118.153846H262.564103A39.384615 39.384615 0 0 1 223.179487 787.692308v-118.153846H708.923077c65.142154 0 118.153846-53.011692 118.153846-118.153847v-249.435897h157.538462c13.154462 0 25.468718 6.564103 32.768 17.513026l131.282051 210.051282c4.306051 6.485333 6.616615 14.099692 6.616615 21.871589v236.307693z m-210.051282 157.538461a78.769231 78.769231 0 1 1 0-157.538461 78.769231 78.769231 0 0 1 0 157.538461z m-511.973743 0a78.769231 78.769231 0 1 1 0-157.538461 78.769231 78.769231 0 0 1 0 157.538461zM144.410256 564.512821A39.384615 39.384615 0 0 1 105.025641 525.128205V144.410256C105.025641 122.617436 122.669949 105.025641 144.410256 105.025641H682.666667c21.766564 0 39.384615 17.591795 39.384615 39.384615V525.128205a39.384615 39.384615 0 0 1-39.384615 39.384616H144.410256zM1082.919385 249.540923A117.970051 117.970051 0 0 0 984.615385 196.923077h-157.538462v-78.769231C827.076923 53.011692 774.065231 0 708.923077 0H118.153846A118.285128 118.285128 0 0 0 0 118.153846V551.384615c0 65.142154 53.011692 118.153846 118.153846 118.153847V787.692308c0 65.142154 53.011692 118.153846 118.153846 118.153846h44.977231c17.591795 67.767795 78.769231 118.153846 151.972103 118.153846 73.150359 0 134.327795-50.386051 151.919589-118.153846h208.082052c17.565538 67.767795 78.769231 118.153846 151.919589 118.153846 73.097846 0 134.301538-50.386051 151.867077-118.153846H1142.153846c65.142154 0 118.153846-53.011692 118.153846-118.153846v-236.307693a117.628718 117.628718 0 0 0-19.849846-65.536l-157.538461-236.307692z m-57.186462 333.062564h-109.883077v-189.046154h23.709539l86.173538 138.134975v50.937436z m-47.734154-223.757128A39.384615 39.384615 0 0 0 945.230769 341.333333h-39.384615c-21.766564 0-39.384615 17.591795-39.384616 39.384616v210.051282a39.384615 39.384615 0 0 0 39.384616 39.384615h131.282051a39.384615 39.384615 0 0 0 39.384616-39.384615v-59.076923c0-7.771897-2.310564-15.386256-6.616616-21.87159l-91.897436-150.974359z" p-id="45026" fill="#ffffff"></path></svg>