<?xml version="1.0" standalone="no"?><!DOCTYPE svg PUBLIC "-//W3C//DTD SVG 1.1//EN" "http://www.w3.org/Graphics/SVG/1.1/DTD/svg11.dtd"><svg t="1528366673014" class="icon" style="" viewBox="0 0 1026 1024" version="1.1" xmlns="http://www.w3.org/2000/svg" p-id="1961" xmlns:xlink="http://www.w3.org/1999/xlink" width="200.390625" height="200"><defs><style type="text/css"></style></defs><path d="M807.822222 227.555556h62.577778c85.333333 0 156.444444 62.577778 156.444444 142.222222v512c0 79.644444-71.111111 142.222222-156.444444 142.222222H156.444444c-85.333333 0-156.444444-62.577778-156.444444-142.222222V369.777778c0-79.644444 71.111111-142.222222 156.444444-142.222222h62.577778v56.888888H156.444444c-51.2 0-93.866667 36.977778-93.866666 85.333334v512c0 48.355556 42.666667 85.333333 93.866666 85.333333h713.955556c51.2 0 93.866667-36.977778 93.866667-85.333333V369.777778c0-48.355556-42.666667-85.333333-93.866667-85.333334h-62.577778V227.555556z m-133.688889 275.911111l-128 116.622222V36.977778c0-19.911111-17.066667-36.977778-36.977777-36.977778s-36.977778 17.066667-36.977778 36.977778v583.111111l-122.311111-116.622222c-14.222222-14.222222-36.977778-14.222222-51.2 0s-14.222222 36.977778 0 51.2l184.888889 173.511111c2.844444 2.844444 2.844444 2.844444 5.688888 2.844444s2.844444 2.844444 5.688889 2.844445 2.844444 0 5.688889 2.844444h25.6s2.844444 0 2.844445-2.844444c0 0 2.844444 0 2.844444-2.844445 0 0 2.844444 0 2.844445-2.844444l190.577777-173.511111c14.222222-14.222222 17.066667-36.977778 2.844445-51.2-17.066667-14.222222-39.822222-14.222222-54.044445 0z" fill="#ffffff" p-id="1962"></path></svg>