<?xml version="1.0" standalone="no"?><!DOCTYPE svg PUBLIC "-//W3C//DTD SVG 1.1//EN" "http://www.w3.org/Graphics/SVG/1.1/DTD/svg11.dtd"><svg t="1528367959408" class="icon" style="" viewBox="0 0 1024 1024" version="1.1" xmlns="http://www.w3.org/2000/svg" p-id="2193" xmlns:xlink="http://www.w3.org/1999/xlink" width="200" height="200"><defs><style type="text/css"></style></defs><path d="M521.8319525 533.15230813c-44.91798375-23.67545344-99.04249219-40.26649125-137.86209-42.270705a13.30284 13.30284 0 1 0-1.38258656 26.56923843c34.75758094 1.7791425 85.74179625 17.544915 126.83355093 39.22687219a13.30069594 13.30069594 0 0 0 12.41112563-23.52540562z" fill="#ffffff" p-id="2194"></path><path d="M668.93272063 320.27686438l11.20002187-31.34934376a19.94568562 19.94568562 0 0 0-11.04997406-25.10091093c-23.75047781-9.97820156-51.98096344-22.06779469-75.62426344-32.48542313a19.79563687 19.79563687 0 0 0-7.69532625-1.66124718h-0.61091063c-0.42870937 0-0.85741781 0-1.28612625 0.05358843s-0.79311188 0.08574187-1.18966781 0.15004875c-0.22507219 0-0.46086188 0-0.68593406 0.08574188-0.49301531 0.08574187-0.98603062 0.20363719-1.46832844 0.33224906l-0.38583844 0.08574188c-0.55732125 0.16076625-1.0717725 0.3429675-1.65052968 0.54660375l-0.16076532 0.05358843a19.74204844 19.74204844 0 0 0-9.27083156 7.30948875l-22.50722156 32.07814875c-104.10125813-25.31526562-211.13917219 23.33248594-248.29752281 115.279845a181.80476063 181.80476063 0 0 0-12.03600469 88.4426625c-121.28177062 30.10608844-200.20709344 140.95951219-181.90122 260.44070438 14.50108125 94.59463594 83.45892094 166.62846281 210.83907562 220.217085 59.01179062 24.81153188 116.23372219 37.2440925 171.21564844 37.2440925a348.86193187 348.86193187 0 0 0 129.17001563-24.56502469c60.56586094-23.96483156 103.45819406-72.45181781 120.75660187-136.53309187 18.22013156-67.43592281 4.28709-143.61750844-36.34380375-202.35063844 22.64655188-17.37343125 43.44965531-38.20868813 55.22843438-67.36089844 35.03624156-86.58849563-1.98277875-187.19577562-86.24552906-240.91301062z m49.30153218 225.97250343c-9.64595156 23.95411406-28.61632406 41.1989325-54.13522594 59.15112094a18.88463062 18.88463062 0 0 0-5.10163687 2.92593844c-8.09188219 6.430635-9.50662125 18.33802688-3.9226875 26.89077094 0.3644025 0.55732125 0.75024094 1.0717725 1.16823281 1.62909468 0.37512 0.46086188 0.77167594 0.91100625 1.16823188 1.31827969s0.62162813 0.58947469 0.93244125 0.87885375a19.52769375 19.52769375 0 0 0 1.54335281 2.29359281c39.65558062 50.37330469 54.16737937 118.96674187 37.940745 179.16820032-13.98663 51.62727844-48.39052594 90.61836-96.97397156 109.80308718-82.37643 32.5818825-173.2948875 28.41268781-270.23670469-12.35753625C215.53010469 869.56024438 156.14319312 809.3480675 143.75350344 728.50427188c-15.94797375-104.01551625 58.10078438-200.27139938 168.55765312-219.1453125l0.40727344-0.09645938 0.49301531-0.07502344 0.64306313-0.18220125 0.81454781-0.21435469c0.37512-0.11789531 0.75024094-0.23578969 1.07177156-0.37512093l0.77167688-0.28937813c0.3644025-0.15004781 0.7180875-0.31081406 1.0717725-0.48229781l0.69665156-0.353685c0.353685-0.18220125 0.6966525-0.38583844 1.0717725-0.58947469l0.64306406-0.40727344c0.33224906-0.21435469 0.65378156-0.45014438 0.96459469-0.68593406l0.58947469-0.46086281c0.30009656-0.24650813 0.60019219-0.50373281 0.88957125-0.77167594l0.53588625-0.51445031c0.27866062-0.27866062 0.54660375-0.55732125 0.80382937-0.84670031s0.33224906-0.37512 0.50373282-0.57875719 0.47158031-0.58947469 0.6966525-0.88957125l0.46086187-0.64306313c0.20363719-0.31081406 0.40727344-0.62162813 0.58947469-0.93244218s0.27866062-0.47158031 0.40727344-0.70737 0.3429675-0.64306313 0.50373375-0.97531313 0.22507219-0.50373281 0.34296656-0.75024094 0.26794313-0.67521656 0.39655594-1.01818312 0.18220125-0.51445031 0.26794312-0.78239438 0.21435469-0.70737 0.31081406-1.0717725 0.12861281-0.51445031 0.18220125-0.78239343 0.15004781-0.76095844 0.21435469-1.13607938 0.07502438-0.51445031 0.10717688-0.77167594 0.07502438-0.80382938 0.09646031-1.20038531 0-0.50373281 0-0.75024094v-1.25397375-0.7395225c0-0.42870937-0.08574187-0.84670031-0.15004875-1.26469125 0-0.15004781 0-0.28937812-0.05358844-0.43942687s-0.05358844-0.22507219-0.07502437-0.3429675-0.05358844-0.3644025-0.09645938-0.54660375a143.49961312 143.49961312 0 0 1 6.76288406-84.83078906c31.23144938-77.16761625 125.39737594-115.85860125 214.21515938-88.05682407a19.95640312 19.95640312 0 0 0 24.54358875-11.78949749l18.38089781-26.37631969c14.28672656 6.21628031 29.44158937 12.72193875 43.84621125 18.84175969l-8.63848594 24.17918625a18.78817125 18.78817125 0 0 0-1.18966781 1.93990781 19.92424969 19.92424969 0 0 0 8.19905906 26.98723031c77.10331031 41.1774975 113.05055812 127.101495 83.58753375 199.91771531zM914.46507031 151.46198656c-22.16425406-9.19580719-45.93616688-14.09380781-69.42941906-18.57381656-48.84067031-9.32442-101.05742437-12.42184313-148.75129781 3.85838063 43.07453437-52.06670531 111.3571575-81.19748062 179.82198093-80.16857907 16.97687531 0.24650813 17.00902875 0.06430594 35.16485438 0 5.13379031 0 9.58164563-7.34164125 9.6459525-10.61054718 0-2.95809188-1.82201344-8.18834156-4.90871813-10.58911219-3.84766313-3.00096281-6.26986875-2.65799531-6.26986875-2.65799531-70.86559406-2.77589063-129.68446594 0.16076625-198.27790312 51.44507718-36.50457 27.27660844-61.20892406 65.44242562-73.0627275 108.69916219-5.26240312 19.29190406 0.08574187 20.88884531 13.42930875 8.57417906 11.89667437-10.97494969 22.23927844-22.17497156 36.63318187-30.36331312 31.33862625-17.85572906 68.71133156-21.78913406 104.35848375-19.15257375a364.24186594 364.24186594 0 0 1 57.77925282 9.32442c17.57706844 4.20134812 36.25806188 10.71772406 53.86728281 15.47639437 16.37668312 4.41570281 25.18665281-18.959655 9.99963656-25.26167625z" fill="#ffffff" p-id="2195"></path></svg>