<?xml version="1.0" standalone="no"?><!DOCTYPE svg PUBLIC "-//W3C//DTD SVG 1.1//EN" "http://www.w3.org/Graphics/SVG/1.1/DTD/svg11.dtd"><svg t="1528368015206" class="icon" style="" viewBox="0 0 1024 1024" version="1.1" xmlns="http://www.w3.org/2000/svg" p-id="2347" xmlns:xlink="http://www.w3.org/1999/xlink" width="200" height="200"><defs><style type="text/css"></style></defs><path d="M544.064332 1024c-12.795693 0-25.591387-6.397847-31.989234-12.795693l-121.559088-124.758012c-12.795693-12.795693-12.795693-31.989234 0-44.784927 12.795693-12.795693 31.989234-12.795693 44.784927 0l108.763395 111.962318 108.763394-111.962318c12.795693-12.795693 31.989234-12.795693 44.784927 0 12.795693 12.795693 12.795693 31.989234 0 44.784927L576.053565 1011.204307c-6.397847 6.397847-19.19354 12.795693-31.989233 12.795693z m-12.795694-57.580621z m25.591387 0zM799.978201 697.709817c-15.994617 0-28.79031-12.795693-31.989234-28.79031-3.198923-15.994617 9.59677-35.188157 25.591387-35.188157 95.967701-12.795693 169.542938-99.166624 163.145091-195.134325 0-99.166624-89.569854-182.338632-188.736478-182.338632-31.989234 0-63.978467 9.59677-89.569854 22.392464l-12.795694 6.397846-28.79031-9.59677-6.397847-15.994617c-41.586004-121.559088-159.946168-201.532172-287.903102-195.134325-153.548321 6.397847-271.908486 127.956934-278.306333 275.107409-6.397847 140.752628 92.768778 262.311716 230.322482 291.102026 15.994617 3.198923 28.79031 19.19354 25.591387 38.387081-3.198923 15.994617-19.19354 28.79031-38.38708 25.591387-169.542938-35.188157-287.903103-185.537555-281.505256-358.279417C6.645207 157.091769 153.795681 9.941294 336.134313 0.344524c147.150475-6.397847 281.505256 76.774161 339.085876 207.930019 28.79031-12.795693 57.580621-15.994617 89.569855-15.994617h3.198923c137.553705 0 252.714946 108.763394 255.913869 246.317099 6.397847 131.155858-89.569854 243.118176-217.526789 262.311715-3.198923-3.198923-6.397847-3.198923-6.397846-3.198923z" p-id="2348" fill="#ffffff"></path><path d="M544.064332 1024c-19.19354 0-31.989234-12.795693-31.989234-31.989234V640.129197c0-19.19354 12.795693-31.989234 31.989234-31.989234s31.989234 12.795693 31.989233 31.989234v351.881569c0 19.19354-12.795693 31.989234-31.989233 31.989234z" p-id="2349" fill="#ffffff"></path></svg>