<?xml version="1.0" standalone="no"?><!DOCTYPE svg PUBLIC "-//W3C//DTD SVG 1.1//EN" "http://www.w3.org/Graphics/SVG/1.1/DTD/svg11.dtd"><svg t="1528421412738" class="icon" style="" viewBox="0 0 1024 1024" version="1.1" xmlns="http://www.w3.org/2000/svg" p-id="18623" xmlns:xlink="http://www.w3.org/1999/xlink" width="200" height="200"><defs><style type="text/css"></style></defs><path d="M979.456 481.28v266.24c0 128-103.936 231.936-231.936 231.936H276.48C148.48 979.456 44.544 875.52 44.544 747.52V276.48C44.544 148.48 148.48 44.544 276.48 44.544h417.28c31.744 0 57.856 26.112 57.856 57.856s-26.112 57.856-57.856 57.856H276.48c-64 0-116.224 52.224-116.224 116.224v471.04c0 64 52.224 116.224 116.224 116.224h471.04c64 0 116.224-52.224 116.224-116.224V481.28c0-31.744 26.112-57.856 57.856-57.856s57.856 26.112 57.856 57.856zM348.672 472.064c-22.528-22.528-59.392-22.528-81.92 0s-22.528 59.392 0 81.92L399.36 686.592c19.456 19.456 44.544 28.672 69.632 28.672s50.688-9.728 69.632-28.672L962.56 263.168c22.528-22.528 22.528-59.392 0-81.92s-59.392-22.528-81.92 0l-411.136 411.136-120.832-120.32z" p-id="18624" fill="#ffffff"></path></svg>