<?xml version="1.0" standalone="no"?><!DOCTYPE svg PUBLIC "-//W3C//DTD SVG 1.1//EN" "http://www.w3.org/Graphics/SVG/1.1/DTD/svg11.dtd"><svg t="1528426138203" class="icon" style="" viewBox="0 0 1024 1024" version="1.1" xmlns="http://www.w3.org/2000/svg" p-id="51683" xmlns:xlink="http://www.w3.org/1999/xlink" width="200" height="200"><defs><style type="text/css"></style></defs><path d="M985.6 505.6c-12.8-12.8-32-19.2-51.2-19.2h-96V140.8c0-57.6-32-89.6-89.6-89.6H275.2c-32 0-51.2 6.4-70.4 25.6-19.2 12.8-25.6 32-25.6 64v339.2H70.4c-32 12.8-57.6 44.8-57.6 76.8 0 19.2 6.4 32 19.2 51.2l384 332.8c32 19.2 57.6 32 96 32s70.4-12.8 96-32l384-332.8c12.8-12.8 19.2-32 19.2-44.8 0-25.6-12.8-44.8-25.6-57.6zM960 576l-377.6 332.8c-19.2 19.2-44.8 25.6-70.4 25.6-19.2 0-44.8 0-70.4-25.6L64 576c-6.4-6.4-6.4-12.8-6.4-19.2 0-12.8 12.8-32 25.6-32h140.8v-384c0-19.2 6.4-32 12.8-38.4 6.4-6.4 19.2-12.8 38.4-12.8h480c19.2 0 32 6.4 38.4 12.8 6.4 6.4 12.8 19.2 12.8 38.4v377.6h128c19.2 0 32 12.8 32 32 0 12.8 0 25.6-6.4 25.6z" fill="#ffffff" p-id="51684"></path><path d="M512 979.2c-38.4 0-70.4-12.8-102.4-32l-384-332.8C12.8 595.2 6.4 576 6.4 556.8c0-38.4 25.6-70.4 57.6-76.8 6.4 0 12.8-6.4 19.2-6.4h83.2V140.8c0-32 6.4-57.6 25.6-76.8 19.2-19.2 38.4-25.6 76.8-25.6h480c64 0 102.4 32 102.4 102.4v332.8h89.6c19.2 0 38.4 12.8 51.2 25.6 12.8 12.8 25.6 38.4 25.6 57.6 0 19.2-6.4 38.4-19.2 51.2l-377.6 332.8c-32 25.6-70.4 38.4-108.8 38.4z m-89.6-44.8c25.6 19.2 57.6 32 89.6 32 38.4 0 70.4-12.8 89.6-32l377.6-332.8c12.8-12.8 12.8-25.6 12.8-44.8 0-19.2-6.4-32-19.2-44.8-12.8-12.8-25.6-19.2-44.8-19.2h-102.4V140.8c0-57.6-25.6-83.2-83.2-83.2H275.2c-25.6 0-51.2 6.4-64 19.2-12.8 12.8-19.2 32-19.2 64v352H70.4c-25.6 6.4-44.8 32-44.8 64 0 12.8 6.4 32 19.2 44.8l377.6 332.8z m89.6 6.4c-19.2 0-44.8 0-76.8-25.6L57.6 582.4C51.2 576 44.8 569.6 44.8 556.8c0-19.2 12.8-38.4 32-38.4h128V140.8c0-19.2 6.4-38.4 12.8-44.8 6.4-6.4 25.6-12.8 44.8-12.8h480c19.2 0 38.4 6.4 44.8 12.8 6.4 6.4 12.8 25.6 12.8 44.8V512h121.6c25.6 0 38.4 19.2 38.4 44.8 0 12.8-6.4 19.2-6.4 25.6L576 915.2c-6.4 19.2-32 25.6-64 25.6z m275.2-832c-6.4-6.4-19.2-6.4-32-6.4H275.2c-19.2 0-32 0-38.4 6.4-6.4 6.4-6.4 19.2-6.4 32v390.4H89.6h-6.4c-12.8 6.4-19.2 12.8-19.2 25.6 0 6.4 0 12.8 6.4 19.2L448 902.4c25.6 19.2 51.2 25.6 64 25.6 25.6 0 51.2-6.4 64-25.6l377.6-332.8c6.4 0 6.4-6.4 6.4-12.8 0-12.8-12.8-25.6-25.6-25.6h-134.4" fill="#ffffff" p-id="51685"></path><path d="M672 563.2H531.2V486.4h140.8c12.8 0 19.2-6.4 19.2-19.2 0-12.8-6.4-19.2-19.2-19.2H537.6l121.6-140.8c6.4-6.4 6.4-19.2 0-25.6-6.4-6.4-19.2-6.4-25.6 0L512 428.8 396.8 288c-6.4-6.4-19.2-6.4-25.6 0-6.4 6.4-6.4 19.2 0 25.6l121.6 140.8H352c-12.8 0-19.2 6.4-19.2 19.2 0 12.8 6.4 19.2 19.2 19.2h140.8v76.8H352c-12.8 0-19.2 6.4-19.2 19.2 0 12.8 6.4 19.2 19.2 19.2h140.8v102.4c0 12.8 6.4 19.2 19.2 19.2 12.8 0 19.2-6.4 19.2-19.2V601.6h140.8c12.8 0 19.2-6.4 19.2-19.2 0-12.8-6.4-19.2-19.2-19.2z" fill="#ffffff" p-id="51686"></path><path d="M512 723.2c-12.8 0-25.6-12.8-25.6-25.6V608H352c-12.8 0-25.6-12.8-25.6-25.6s12.8-25.6 25.6-25.6h134.4v-57.6H352c-12.8 0-25.6-12.8-25.6-25.6 0-19.2 12.8-25.6 25.6-25.6h115.2L358.4 320c0-6.4-6.4-12.8-6.4-25.6 0-6.4 6.4-12.8 6.4-19.2H384c6.4 0 12.8 6.4 19.2 6.4L512 416l108.8-134.4c6.4-12.8 25.6-12.8 38.4 0 12.8 12.8 12.8 25.6 0 38.4L556.8 448h115.2c12.8 0 25.6 12.8 25.6 25.6s-12.8 25.6-25.6 25.6H537.6v57.6h134.4c12.8 0 25.6 12.8 25.6 25.6s-12.8 25.6-25.6 25.6H537.6v89.6c0 19.2-12.8 25.6-25.6 25.6zM352 569.6c-6.4 0-12.8 6.4-12.8 12.8s6.4 12.8 12.8 12.8h147.2V704c0 6.4 6.4 12.8 12.8 12.8s12.8-6.4 12.8-12.8V595.2h147.2c6.4 0 6.4-6.4 6.4-12.8s-6.4-12.8-6.4-12.8H524.8V480h147.2c6.4 0 6.4-6.4 6.4-12.8s-6.4-12.8-6.4-12.8H518.4l134.4-153.6c6.4-6.4 0-12.8 0-12.8-6.4-6.4-12.8 0-12.8 0L512 441.6 390.4 294.4s-6.4 0-6.4-6.4h-6.4l-6.4 6.4v6.4l134.4 153.6H352c-6.4 0-12.8 6.4-12.8 12.8s6.4 12.8 12.8 12.8h147.2v89.6H352z" fill="#ffffff" p-id="51687"></path></svg>