<?xml version="1.0" standalone="no"?><!DOCTYPE svg PUBLIC "-//W3C//DTD SVG 1.1//EN" "http://www.w3.org/Graphics/SVG/1.1/DTD/svg11.dtd"><svg t="1528422348882" class="icon" style="" viewBox="0 0 1024 1024" version="1.1" xmlns="http://www.w3.org/2000/svg" p-id="25507" xmlns:xlink="http://www.w3.org/1999/xlink" width="200" height="200"><defs><style type="text/css"></style></defs><path d="M579.662029 665.59519 137.802506 665.59519c-4.881171 0-8.837272-5.001921-8.837272-11.171434L128.965234 542.705326c0-6.169513 3.956102-11.171434 8.837272-11.171434 4.881171 0 8.837272 5.001921 8.837272 11.171434l0 100.54802 433.023274 0c4.880147 0 8.837272 5.001921 8.837272 11.171434C588.499301 660.59327 584.542176 665.59519 579.662029 665.59519L579.662029 665.59519z" p-id="25508" fill="#ffffff"></path><path d="M579.662029 892.955408 137.802506 892.955408c-4.881171 0-8.837272-5.002944-8.837272-11.171434L128.965234 770.065544c0-6.16849 3.956102-11.171434 8.837272-11.171434l441.859523 0c4.880147 0 8.837272 5.002944 8.837272 11.171434 0 6.169513-3.957125 11.172457-8.837272 11.172457L146.638755 781.238001l0 89.373517 433.023274 0c4.880147 0 8.837272 5.002944 8.837272 11.172457C588.499301 887.952464 584.542176 892.955408 579.662029 892.955408L579.662029 892.955408z" p-id="25509" fill="#ffffff"></path><path d="M137.802506 553.877783c-2.26253 0-4.523013-1.090844-6.248308-3.272533-3.450589-4.362354-3.450589-11.435447 0-15.798824L462.993866 115.815749c1.656733-2.094708 3.90596-3.272533 6.249331-3.272533l441.859523 0c4.880147 0 8.837272 5.001921 8.837272 11.171434 0 6.170536-3.957125 11.172457-8.837272 11.172457L472.903563 134.887107l-328.851727 415.718143C142.325519 552.785915 140.064013 553.877783 137.802506 553.877783L137.802506 553.877783z" p-id="25510" fill="#ffffff"></path><path d="M579.662029 553.877783 137.802506 553.877783c-4.881171 0-8.837272-5.001921-8.837272-11.172457 0-6.169513 3.956102-11.171434 8.837272-11.171434l441.859523 0c4.880147 0 8.837272 5.001921 8.837272 11.171434C588.499301 548.875862 584.542176 553.877783 579.662029 553.877783L579.662029 553.877783z" p-id="25511" fill="#ffffff"></path><path d="M579.662029 892.955408c-2.26253 0-4.523013-1.089821-6.249331-3.27151-3.450589-4.362354-3.450589-11.437493 0-15.801894l328.85275-415.718143 0-80.118735L585.912383 777.967514c-3.452635 4.362354-9.046027 4.360308-12.499685 0-3.450589-4.362354-3.450589-11.437493 0-15.799848l331.441715-418.990676c2.527566-3.194762 6.329149-4.151553 9.630335-2.421142 3.302209 1.729387 5.455245 5.803169 5.455245 10.321066l0 111.718431c0 2.962471-0.931209 5.804193-2.588965 7.898901L585.912383 889.684922C584.185043 891.865587 581.923536 892.955408 579.662029 892.955408L579.662029 892.955408z" p-id="25512" fill="#ffffff"></path><path d="M579.662029 892.955408c-4.880147 0-8.836249-5.002944-8.836249-11.171434L570.82578 770.065544c0-6.16849 3.956102-11.171434 8.836249-11.171434 4.880147 0 8.837272 5.002944 8.837272 11.171434l0 111.718431C588.499301 887.954511 584.542176 892.955408 579.662029 892.955408L579.662029 892.955408z" p-id="25513" fill="#ffffff"></path><path d="M579.662029 770.065544c-4.880147 0-8.836249-5.002944-8.836249-11.171434L570.82578 647.175679c0-6.16849 3.956102-11.171434 8.836249-11.171434 4.880147 0 8.837272 5.002944 8.837272 11.171434l0 111.718431C588.499301 765.064646 584.542176 770.065544 579.662029 770.065544L579.662029 770.065544z" p-id="25514" fill="#ffffff"></path><path d="M579.662029 665.59519c-2.26253 0-4.523013-1.090844-6.249331-3.27151-3.450589-4.362354-3.450589-11.437493 0-15.799848l328.85275-415.72019 0-107.088994c0-6.169513 3.957125-11.171434 8.838296-11.171434 4.879124 0 8.836249 5.001921 8.836249 11.171434l0 111.718431c0 2.962471-0.931209 5.804193-2.588965 7.898901L585.912383 662.323681C584.185043 664.504346 581.923536 665.59519 579.662029 665.59519L579.662029 665.59519z" p-id="25515" fill="#ffffff"></path><path d="M579.662029 665.59519c-4.880147 0-8.836249-5.001921-8.836249-11.171434L570.82578 542.705326c0-6.169513 3.956102-11.171434 8.836249-11.171434 4.880147 0 8.837272 5.001921 8.837272 11.171434l0 111.718431C588.499301 660.59327 584.542176 665.59519 579.662029 665.59519L579.662029 665.59519z" p-id="25516" fill="#ffffff"></path><path d="M579.662029 553.877783c-2.26253 0-4.523013-1.090844-6.249331-3.272533-3.450589-4.362354-3.450589-11.435447 0-15.798824L904.854413 115.815749c3.452635-4.363378 9.046027-4.361331 12.498662 0 3.451612 4.363378 3.451612 11.435447 0 15.798824L585.912383 550.60525C584.185043 552.785915 581.923536 553.877783 579.662029 553.877783L579.662029 553.877783z" p-id="25517" fill="#ffffff"></path><path d="M579.663052 892.955408 579.663052 892.955408z" p-id="25518" fill="#ffffff"></path><path d="M579.663052 881.784998 579.663052 881.784998z" p-id="25519" fill="#ffffff"></path><path d="M137.593751 808.53674c-4.880147 0-8.836249-8.305153-8.836249-18.545378L128.757502 604.5253c0-10.240225 3.956102-18.545378 8.836249-18.545378 4.880147 0 8.838296 8.305153 8.838296 18.545378l0 185.467085C146.432047 800.233634 142.473899 808.53674 137.593751 808.53674L137.593751 808.53674z" p-id="25520" fill="#ffffff"></path><path d="M911.103744 380.305609c-4.880147 0-8.836249-5.92392-8.836249-13.227256L902.267495 234.8017c0-7.303336 3.956102-13.227256 8.836249-13.227256 4.880147 0 8.837272 5.92392 8.837272 13.227256l0 132.276652C919.941016 374.383736 915.983891 380.305609 911.103744 380.305609L911.103744 380.305609z" p-id="25521" fill="#ffffff"></path></svg>