<?xml version="1.0" standalone="no"?><!DOCTYPE svg PUBLIC "-//W3C//DTD SVG 1.1//EN" "http://www.w3.org/Graphics/SVG/1.1/DTD/svg11.dtd"><svg t="1528427305610" class="icon" style="" viewBox="0 0 1024 1024" version="1.1" xmlns="http://www.w3.org/2000/svg" p-id="59212" xmlns:xlink="http://www.w3.org/1999/xlink" width="200" height="200"><defs><style type="text/css"></style></defs><path d="M892.6 492.5l-334.7-0.4c-14.3 0-25.9-11.6-26-26l-0.4-334.7c0-9.1-3.7-18-10.2-24.4-6.6-6.5-15.3-10-24.5-9.9-90.4 1-175 30.8-244.7 86-33.4 26.5-62.5 58.2-86.2 94.1-24 36.2-42.1 76-53.9 118.3-20.9 74.5-21 152.4-0.3 225.3 19.5 68.7 56.9 132.1 108.1 183.3 51.3 51.3 114.7 88.7 183.3 108.1 36.3 10.3 73.9 15.5 111.7 15.5 38 0 76.3-5.2 113.7-15.7 42.3-11.8 82.1-29.9 118.3-53.9 35.9-23.8 67.6-52.8 94.1-86.2 55.3-69.7 85-154.4 86-244.7 0.1-9.2-3.4-17.9-9.9-24.5-6.3-6.5-15.2-10.2-24.4-10.2z m-98.7 242.2c-22.6 28.5-49.5 53.2-80.2 73.5-31 20.5-65.1 36-101.3 46.1-63.9 17.8-130.6 17.9-192.9 0.3-58.8-16.7-113.2-48.8-157.3-92.9s-76.2-98.4-92.9-157.3c-17.7-62.3-17.6-129 0.3-192.9 10.1-36.2 25.6-70.3 46.1-101.3 20.3-30.6 45-57.6 73.5-80.2 52.5-41.6 115.1-66.2 182.3-71.8l0.5 359.4c0 18.9 15.4 34.3 34.3 34.3l359.4 0.5c-5.6 67.2-30.1 129.8-71.8 182.3z" fill="#ffffff" p-id="59213"></path><path d="M931.2 280.9c-17.8-42.1-43.3-79.9-75.7-112.4s-70.3-57.9-112.4-75.7C699.5 74.4 653.2 65 605.5 65c-16.6 0-30 13.4-30 30v324c0 8 3.2 15.6 8.8 21.2 5.6 5.6 13.2 8.8 21.2 8.8l323.5-0.4c16.6 0 30-13.4 30-30 0-47.8-9.4-94.1-27.8-137.7z m-295.7 108V126.5c67.1 6.8 129.2 36.2 177.5 84.5 48.3 48.3 77.7 110.5 84.5 177.6l-262 0.3z" fill="#ffffff" p-id="59214"></path></svg>