<?xml version="1.0" standalone="no"?><!DOCTYPE svg PUBLIC "-//W3C//DTD SVG 1.1//EN" "http://www.w3.org/Graphics/SVG/1.1/DTD/svg11.dtd"><svg t="1528428123045" class="icon" style="" viewBox="0 0 1038 1024" version="1.1" xmlns="http://www.w3.org/2000/svg" p-id="62667" xmlns:xlink="http://www.w3.org/1999/xlink" width="202.734375" height="200"><defs><style type="text/css"></style></defs><path d="M671.945915 663.43662H360.56338a14.422535 14.422535 0 0 1 0-28.845071h311.382535a14.422535 14.422535 0 0 1 0 28.845071zM692.28169 259.605634h72.112676v28.84507h-72.112676z" fill="#ffffff" p-id="62668"></path><path d="M713.915493 237.971831h28.84507v72.112676h-28.84507zM540.84507 562.478873H360.56338a14.422535 14.422535 0 0 1 0-28.84507h180.28169a14.422535 14.422535 0 0 1 0 28.84507zM749.971831 764.394366H360.56338a14.422535 14.422535 0 0 1 0-28.84507h389.408451a14.422535 14.422535 0 0 1 0 28.84507zM749.971831 475.943662h-41.825352l-27.114366-56.103662h-139.177465L515.028732 475.943662h-41.825352L591.323944 244.173521h40.094648z m-195.713803-81.775775h114.082254l-57.690141-120.716619z" fill="#ffffff" p-id="62669"></path><path d="M836.507042 860.304225H274.028169a14.422535 14.422535 0 0 1-14.422535-14.422535V173.070423a14.422535 14.422535 0 0 1 14.422535-14.422536h562.478873a14.422535 14.422535 0 0 1 14.422535 14.422536v672.811267a14.422535 14.422535 0 0 1-14.422535 14.422535z m-548.056338-28.84507h533.633803V187.492958H288.450704z" fill="#ffffff" p-id="62670"></path></svg>