<?xml version="1.0" standalone="no"?><!DOCTYPE svg PUBLIC "-//W3C//DTD SVG 1.1//EN" "http://www.w3.org/Graphics/SVG/1.1/DTD/svg11.dtd"><svg t="1528425213388" class="icon" style="" viewBox="0 0 1024 1024" version="1.1" xmlns="http://www.w3.org/2000/svg" p-id="48591" xmlns:xlink="http://www.w3.org/1999/xlink" width="200" height="200"><defs><style type="text/css"></style></defs><path d="M736 608a96 96 0 0 0-90.53 64H444a127.22 127.22 0 0 0-13.7-33L639 430.27A128 128 0 1 0 593.73 385L385 593.73A127.39 127.39 0 0 0 320 576V378.53a96 96 0 1 0-64 0v214.6A128 128 0 1 0 444 736h201.5A96 96 0 1 0 736 608z" p-id="48592" fill="#ffffff"></path></svg>