<?xml version="1.0" standalone="no"?><!DOCTYPE svg PUBLIC "-//W3C//DTD SVG 1.1//EN" "http://www.w3.org/Graphics/SVG/1.1/DTD/svg11.dtd"><svg t="1528420750294" class="icon" style="" viewBox="0 0 1024 1024" version="1.1" xmlns="http://www.w3.org/2000/svg" p-id="12702" xmlns:xlink="http://www.w3.org/1999/xlink" width="200" height="200"><defs><style type="text/css"></style></defs><path d="M868.48 136.58H743.77a28.8 28.8 0 0 0 0 57.6h124.71a34.15 34.15 0 0 1 34.11 34.11v566.92a34.15 34.15 0 0 1-34.11 34.11H155.72a34.15 34.15 0 0 1-34.11-34.11V228.29a34.15 34.15 0 0 1 34.11-34.11h120.89a28.8 28.8 0 0 0 0-57.6H155.72A91.81 91.81 0 0 0 64 228.29v566.92a91.81 91.81 0 0 0 91.71 91.71h712.77a91.81 91.81 0 0 0 91.71-91.71V228.29a91.81 91.81 0 0 0-91.71-91.71z" p-id="12703" fill="#ffffff"></path><path d="M453.23 264.88h118.1v60.49h-118.1zM453.23 146.63h118.1v60.49h-118.1zM479.21 664.24c18.19 20.4 47.65 20.4 65.78 0l131.55-147.75c18.07-20.28 18.07-53.15 0.18-73.55h-105.4v-60.5H453.23v60.49H347.48c-17.89 20.4-17.89 53.21 0.18 73.55z" p-id="12704" fill="#ffffff"></path></svg>