<?xml version="1.0" standalone="no"?><!DOCTYPE svg PUBLIC "-//W3C//DTD SVG 1.1//EN" "http://www.w3.org/Graphics/SVG/1.1/DTD/svg11.dtd"><svg t="1528428284243" class="icon" style="" viewBox="0 0 1024 1024" version="1.1" xmlns="http://www.w3.org/2000/svg" p-id="63459" xmlns:xlink="http://www.w3.org/1999/xlink" width="200" height="200"><defs><style type="text/css"></style></defs><path d="M592.246649 64.759933l-400.015509 0.899486c-27.240411 0-49.320289 22.080901-49.320289 49.320289l0 789.129738c0 27.240411 22.080901 49.320289 49.320289 49.320289l641.167848 6.16542c27.240411 0 49.320289-22.080901 49.320289-49.320289L882.719276 361.583199 592.246649 64.759933zM642.281205 190.896748l60.684104 60.681034 60.681034 60.684104L642.281205 312.261886 642.281205 190.896748zM833.397964 910.274866l-641.167848-6.16542L192.230116 114.979708l384.66694-1.103124 16.062837 27.695782 0 170.689521c0 27.240411 22.080901 49.320289 49.320289 49.320289l170.686451 0 20.431332 20.431332L833.397964 910.274866z" p-id="63460" fill="#ffffff"></path><path d="M290.871717 269.107017l147.96189 0 0 49.320289-147.96189 0 0-49.320289Z" p-id="63461" fill="#ffffff"></path><path d="M290.871717 417.068907l394.564357 0 0 49.320289-394.564357 0 0-49.320289Z" p-id="63462" fill="#ffffff"></path><path d="M290.871717 565.029774l394.564357 0 0 49.320289-394.564357 0 0-49.320289Z" p-id="63463" fill="#ffffff"></path><path d="M290.871717 712.991664l394.564357 0 0 49.320289-394.564357 0 0-49.320289Z" p-id="63464" fill="#ffffff"></path></svg>