<?xml version="1.0" standalone="no"?><!DOCTYPE svg PUBLIC "-//W3C//DTD SVG 1.1//EN" "http://www.w3.org/Graphics/SVG/1.1/DTD/svg11.dtd"><svg t="1528422581941" class="icon" style="" viewBox="0 0 1024 1024" version="1.1" xmlns="http://www.w3.org/2000/svg" p-id="27488" xmlns:xlink="http://www.w3.org/1999/xlink" width="200" height="200"><defs><style type="text/css"></style></defs><path d="M1022.00112 924.336L901.58512 149.2c-5.696-36.64-38.976-69.024-75.776-73.696L489.42512 32.672c-34.784-4.32-80.112 12.416-103.472 37.744L30.35312 455.952C6.70512 481.584-5.55088 528.272 2.43312 562.272l76.752 325.392c8.528 36.096 44.208 65.792 81.248 67.616l798.592 39.056 3.456 0.08c18.576 0 35.024-7.28 46.336-20.464 11.392-13.312 16.08-30.944 13.184-49.616z m-34.832 5.408c0.384 2.448 0.416 4.8 0.256 7.072L558.32112 321.92 853.08912 128.384c7.024 7.664 12.208 16.88 13.664 26.224l120.416 775.136zM544.96112 333.664l427.2 612.368-662.16-355.184L544.96112 333.664zM297.79312 578.08l-61.36-285.248 289.616 35.408L297.79312 578.08zM477.85712 67.216c2.448 0 4.832 0.144 7.12 0.432l336.4 42.816c5.92 0.752 11.792 3.04 17.344 6.272L550.16112 306.208 455.68112 70.416c7.552-1.968 15.136-3.2 22.176-3.2z m-66 27.104c6.512-7.056 16.288-13.328 27.152-18.112l94.224 235.168-289.008-35.328L411.85712 94.32zM220.35312 301.952l59.232 275.312-232.096-84.64c2.624-4.8 5.52-9.232 8.784-12.784l164.08-177.888zM36.75312 554.176c-3.056-12.992-1.232-29.968 3.792-45.328l243.344 88.736-157.776 304.16c-6.112-6.528-10.736-14.208-12.608-22.176L36.75312 554.176z m103.424 358.768l159.552-307.6 659.296 353.648-796.864-38.944c-7.424-0.352-15.024-3.024-21.984-7.104z" p-id="27489" fill="#ffffff"></path></svg>