<?xml version="1.0" standalone="no"?><!DOCTYPE svg PUBLIC "-//W3C//DTD SVG 1.1//EN" "http://www.w3.org/Graphics/SVG/1.1/DTD/svg11.dtd"><svg t="1528423912348" class="icon" style="" viewBox="0 0 1024 1024" version="1.1" xmlns="http://www.w3.org/2000/svg" p-id="36766" xmlns:xlink="http://www.w3.org/1999/xlink" width="200" height="200"><defs><style type="text/css"></style></defs><path d="M173.9 447.7h212.5c36.9 0 67.1-30.2 67.1-67.1V168c0-36.9-30.2-67.1-67.1-67.1H173.9c-36.9 0-67.1 30.2-67.1 67.1v212.5c0 37 30.2 67.2 67.1 67.2zM167.3 168c0-3.5 3.1-6.6 6.6-6.6h212.5c3.5 0 6.6 3.1 6.6 6.6v212.5c0 3.5-3.1 6.6-6.6 6.6H173.9c-3.5 0-6.6-3.1-6.6-6.6V168zM640.9 447.7h212.5c36.9 0 67.1-30.2 67.1-67.1V168c0-36.9-30.2-67.1-67.1-67.1H640.9c-36.9 0-67.1 30.2-67.1 67.1v212.5c0 37 30.2 67.2 67.1 67.2z m0-286.3h212.5c3.5 0 6.6 3.1 6.6 6.6v212.5c0 3.5-3.1 6.6-6.6 6.6H640.9c-3.5 0-6.6-3.1-6.6-6.6V168c0-3.5 3.1-6.6 6.6-6.6zM129.6 605.8h768.2c16.7 0 30.3-13.5 30.3-30.3s-13.5-30.3-30.3-30.3H129.6c-16.7 0-30.3 13.5-30.3 30.3s13.6 30.3 30.3 30.3zM897.7 703.7H129.6c-16.7 0-30.3 13.5-30.3 30.3 0 16.7 13.5 30.3 30.3 30.3h768.2c16.7 0 30.3-13.5 30.3-30.3-0.1-16.7-13.7-30.3-30.4-30.3zM897.7 862.2H129.6c-16.7 0-30.3 13.5-30.3 30.3s13.5 30.3 30.3 30.3h768.2c16.7 0 30.3-13.5 30.3-30.3s-13.7-30.3-30.4-30.3z" p-id="36767" fill="#ffffff"></path></svg>