<?xml version="1.0" standalone="no"?><!DOCTYPE svg PUBLIC "-//W3C//DTD SVG 1.1//EN" "http://www.w3.org/Graphics/SVG/1.1/DTD/svg11.dtd"><svg t="1528427081362" class="icon" style="" viewBox="0 0 1024 1024" version="1.1" xmlns="http://www.w3.org/2000/svg" p-id="57048" xmlns:xlink="http://www.w3.org/1999/xlink" width="200" height="200"><defs><style type="text/css"></style></defs><path d="M262.394752 510.924822h499.230975c32.398712 0 32.460151 45.464691 0 45.46469H262.394752c-32.419192 0-32.48063-45.464691 0-45.46469zM661.705806 75.446811v117.614288c0 34.118998 8.888142 61.541169 26.97162 79.583688 17.161897 17.120938 43.621528 26.766825 79.706566 26.766825h117.266135L661.705806 75.446811zM918.745145 344.876302h-150.361153c-48.823344 0-85.973321-14.458591-111.695686-40.099038-27.135457-27.053539-40.467671-65.51421-40.46767-111.716165v-147.453051H222.787224c-64.633587 0-117.532369 52.898782-117.532369 117.532369v697.739645c0 64.633587 52.898782 117.532369 117.532369 117.53237h578.425552c64.633587 0 117.532369-52.898782 117.532369-117.53237V344.876302zM222.787224 0.122878h418.479951c3.317694 0 13.721326 4.321194 16.076478 6.655866L957.553969 306.98906c2.355153 2.355153 6.655867 12.758785 6.655867 16.076479v537.794044c0 89.639167-73.357893 162.99706-162.99706 162.99706H222.787224c-89.639167 0-162.99706-73.357893-162.99706-162.99706V163.119938C59.790164 73.48077 133.127577 0.122878 222.787224 0.122878z m39.607528 728.172316h499.230975c32.398712 0 32.460151 45.464691 0 45.464691H262.394752c-32.419192 0-32.48063-45.464691 0-45.464691z" fill="#ffffff" p-id="57049"></path></svg>