<?xml version="1.0" standalone="no"?><!DOCTYPE svg PUBLIC "-//W3C//DTD SVG 1.1//EN" "http://www.w3.org/Graphics/SVG/1.1/DTD/svg11.dtd"><svg t="1528426313556" class="icon" style="" viewBox="0 0 1024 1024" version="1.1" xmlns="http://www.w3.org/2000/svg" p-id="53770" xmlns:xlink="http://www.w3.org/1999/xlink" width="200" height="200"><defs><style type="text/css"></style></defs><path d="M894.503159 81.156368l-53.368488 0c-17.207917 0-31.208792 13.979386-31.208792 31.162744 0 17.170055 14.000875 31.139208 31.208792 31.139208l53.368488 0c9.956769 0 24.421202 16.126282 24.421202 41.395806l0 113.908306L109.336686 298.762431 109.336686 184.855148c0-22.825868 18.254759-41.395806 40.692794-41.395806l73.435523 0c17.207917 0 31.207769-13.969153 31.207769-31.139208 0-17.183358-13.999852-31.162744-31.207769-31.162744l-73.435523 0c-56.861032 0-103.121636 46.518476-103.121636 103.697757l0 725.377762c0 57.17928 46.601364 103.69878 103.882975 103.69878l726.693734 0c57.281611 0 103.882975-46.5195 103.882975-103.69878L981.367529 184.855148C981.365482 127.675868 942.399005 81.156368 894.503159 81.156368zM918.925385 910.23291c0 22.825868-18.590404 41.395806-41.441854 41.395806L150.789797 951.628716c-22.857591 0-41.453111-18.569938-41.453111-41.395806l0-549.167504 809.587676 0L918.924361 910.23291z" p-id="53771" fill="#ffffff"></path><path d="M224.375745 797.501406l581.932746 0c17.207917 0 31.208792-13.969153 31.208792-31.140231 0-17.183358-14.000875-31.162744-31.208792-31.162744L224.375745 735.198431c-17.21508 0-31.221072 13.979386-31.221072 31.162744C193.154673 783.532253 207.159642 797.501406 224.375745 797.501406z" p-id="53772" fill="#ffffff"></path><path d="M224.375745 579.895343l581.932746 0c17.207917 0 31.208792-13.979386 31.208792-31.162744 0-17.171078-14.000875-31.141254-31.208792-31.141254L224.375745 517.591345c-17.21508 0-31.221072 13.969153-31.221072 31.141254C193.154673 565.915957 207.159642 579.895343 224.375745 579.895343z" p-id="53773" fill="#ffffff"></path><path d="M732.134141 179.738617c17.222243 0 31.232328-13.979386 31.232328-31.162744L763.36647 39.760562c0-17.170055-14.010085-31.139208-31.232328-31.139208-17.207917 0-31.207769 13.969153-31.207769 31.139208l0 108.814288C700.926372 165.759231 714.926224 179.738617 732.134141 179.738617z" p-id="53774" fill="#ffffff"></path><path d="M332.463486 179.738617c17.21508 0 31.220049-13.979386 31.220049-31.162744L363.683535 39.760562c0-17.170055-14.004969-31.139208-31.220049-31.139208-17.21508 0-31.221072 13.969153-31.221072 31.139208l0 108.814288C301.242414 165.759231 315.248406 179.738617 332.463486 179.738617z" p-id="53775" fill="#ffffff"></path><path d="M441.474248 143.459343l181.660386 0c17.222243 0 31.232328-13.969153 31.232328-31.139208 0-17.183358-14.010085-31.162744-31.232328-31.162744L441.474248 81.157391c-17.222243 0-31.232328 13.979386-31.232328 31.162744C410.24192 129.49019 424.253028 143.459343 441.474248 143.459343z" p-id="53776" fill="#ffffff"></path></svg>