<?xml version="1.0" standalone="no"?><!DOCTYPE svg PUBLIC "-//W3C//DTD SVG 1.1//EN" "http://www.w3.org/Graphics/SVG/1.1/DTD/svg11.dtd"><svg t="1528420774425" class="icon" style="" viewBox="0 0 1030 1024" version="1.1" xmlns="http://www.w3.org/2000/svg" p-id="12856" xmlns:xlink="http://www.w3.org/1999/xlink" width="201.171875" height="200"><defs><style type="text/css"></style></defs><path d="M780.288 962.048H68.096c-14.336 0-25.6-11.264-25.6-25.6V310.272c0-14.336 11.264-25.6 25.6-25.6h712.192c14.336 0 25.6 11.264 25.6 25.6v626.176c0 14.336-11.264 25.6-25.6 25.6z m-686.592-51.2h660.992V335.872H93.696v574.976z" p-id="12857" fill="#ffffff"></path><path d="M780.8 335.872H68.096c-9.728 0-18.432-5.12-22.528-13.824-4.608-8.704-3.584-18.432 1.536-26.624l109.056-156.672c4.608-6.656 12.8-10.752 20.992-10.752h487.936c8.192 0 15.872 4.096 20.48 10.24l115.712 156.672c5.632 7.68 6.656 17.92 2.048 26.624-4.096 8.704-12.8 14.336-22.528 14.336z m-663.552-51.2h612.864L652.288 179.2H190.464L117.248 284.672zM556.544 644.096H263.68c-14.336 0-25.6-11.264-25.6-25.6s11.264-25.6 25.6-25.6h292.864c14.336 0 25.6 11.264 25.6 25.6s-11.264 25.6-25.6 25.6zM954.88 958.976c-14.336 0-25.6-11.264-25.6-25.6V153.6c0-14.336 11.264-25.6 25.6-25.6s25.6 11.264 25.6 25.6v779.776c0 14.336-11.264 25.6-25.6 25.6z" p-id="12858" fill="#ffffff"></path><path d="M482.816 755.712c-6.656 0-13.312-2.56-17.92-7.68-9.728-10.24-9.728-26.112 0-36.352l93.696-93.696-94.208-94.208c-10.24-10.24-10.24-26.112 0-36.352s26.112-10.24 36.352 0l112.128 112.128c4.608 4.608 7.68 11.264 7.68 17.92s-2.56 13.312-7.68 17.92l-112.128 111.616c-4.608 6.144-11.264 8.704-17.92 8.704z" p-id="12859" fill="#ffffff"></path></svg>