<?xml version="1.0" standalone="no"?><!DOCTYPE svg PUBLIC "-//W3C//DTD SVG 1.1//EN" "http://www.w3.org/Graphics/SVG/1.1/DTD/svg11.dtd"><svg t="1528365750125" class="icon" style="" viewBox="0 0 1024 1024" version="1.1" xmlns="http://www.w3.org/2000/svg" p-id="2075" xmlns:xlink="http://www.w3.org/1999/xlink" width="200" height="200"><defs><style type="text/css"></style></defs><path d="M449.1 871.2c-14.7 0-29.4-0.8-44.2-2.5-53-5.9-103.2-21.9-149.3-47.8C211 796 172.2 763 140.1 723s-55.7-85.1-70.3-134.1C54.7 538.2 50 485.7 55.9 432.7c5.9-53 22-103.2 47.8-149.3 24.9-44.5 57.9-83.4 97.9-115.4 40-32 85.1-55.7 134.1-70.3 50.7-15.1 103.2-19.8 156.2-13.9 53 5.9 103.2 22 149.3 47.8 44.5 24.9 83.4 57.9 115.4 97.9s55.7 85.1 70.3 134.1c15.1 50.7 19.8 103.2 13.9 156.2-5.9 53-22 103.2-47.8 149.3-24.9 44.5-57.9 83.4-97.9 115.4-40 32-85.1 55.7-134.1 70.3-36.5 10.9-74 16.4-111.9 16.4z m-1-749.8c-178.3 0-332.3 134.5-352.4 315.8C85.3 531.4 112.1 624 171.4 698c59.2 74 143.7 120.5 237.9 131 194.5 21.6 370.2-119.1 391.8-313.6C822.7 320.9 682 145.1 487.5 123.6c-13.2-1.5-26.4-2.2-39.4-2.2z" fill="#ffffff" p-id="2076"></path><path d="M986.6 909.6c-7 8.5-19.7 9.7-28.2 2.7L743.9 735.5c-8.5-7-9.7-19.7-2.7-28.2 7-8.5 19.7-9.7 28.2-2.7L984 881.4c8.4 7 9.6 19.7 2.6 28.2z" fill="#ffffff" p-id="2077"></path></svg>