<?xml version="1.0" standalone="no"?><!DOCTYPE svg PUBLIC "-//W3C//DTD SVG 1.1//EN" "http://www.w3.org/Graphics/SVG/1.1/DTD/svg11.dtd"><svg t="1528421249377" class="icon" style="" viewBox="0 0 1024 1024" version="1.1" xmlns="http://www.w3.org/2000/svg" p-id="13823" xmlns:xlink="http://www.w3.org/1999/xlink" width="200" height="200"><defs><style type="text/css"></style></defs><path d="M512 1024C229.226667 1024 0 794.773333 0 512S229.226667 0 512 0s512 229.226667 512 512-229.226667 512-512 512z m0-85.333333c235.648 0 426.666667-191.018667 426.666667-426.666667S747.648 85.333333 512 85.333333 85.333333 276.352 85.333333 512s191.018667 426.666667 426.666667 426.666667z" p-id="13824" fill="#ffffff"></path><path d="M539.669333 495.082667c20.650667 12.416 44.672 30.293333 72.234667 53.717333 26.090667-19.306667 46.741333-37.184 61.909333-53.717333 9.578667-9.6 19.904-10.325333 30.954667-2.069334 9.6 11.050667 9.6 22.037333 0 33.066667-13.781333 15.146667-33.728 31.68-59.861333 49.578667 15.125333 13.76 35.754667 35.093333 61.909333 64 9.6 13.781333 9.6 24.789333 0 33.066666-11.008 8.277333-22.016 6.933333-33.002667-4.117333-44.074667-50.944-97.728-97.792-160.96-140.458667-9.664-6.890667-10.325333-16.533333-2.069333-28.928 9.6-9.6 19.242667-11.008 28.885333-4.138666z m-82.538666-57.813334h191.914666c10.986667 0 15.786667-4.138667 14.442667-12.394666v-33.066667h-206.357333v45.461333z m16.512-125.994666c-11.029333 0-16.512 6.186667-16.512 18.56v22.741333h206.357333v-22.72c1.344-13.76-3.456-19.946667-14.442667-18.581333h-175.402666z m191.914666-39.253334c27.477333-1.344 40.533333 10.325333 39.210667 35.114667v138.368c-1.429333 20.693333-13.12 31.722667-35.093333 33.066667h-210.474667v144.597333c0 2.773333 0.64 4.117333 2.069333 4.117333 0 1.386667 1.344 1.386667 4.138667 0 27.477333-13.738667 48.085333-26.837333 61.866667-39.253333 12.394667-9.6 23.381333-9.6 33.045333 0 8.256 11.050667 6.186667 22.037333-6.208 33.066667-24.746667 19.306667-54.357333 37.184-88.704 53.696-31.68 11.050667-48.192 1.386667-49.536-28.906667V309.205333c-2.773333-26.154667 10.304-38.528 39.189333-37.184h210.496z m-354.922666 20.650667c21.973333 20.650667 43.989333 46.826667 66.026666 78.506667 8.256 12.373333 6.826667 22.698667-4.138666 30.976-11.029333 6.890667-21.354667 4.138667-30.933334-8.277334-9.664-13.738667-27.562667-35.797333-53.653333-66.069333-4.138667-4.16-6.912-6.890667-8.256-8.298667-9.685333-9.6-10.325333-19.264-2.069333-28.906666 10.965333-8.256 21.973333-7.552 33.024 2.069333z m420.949333 396.586667c15.104 1.344 23.338667 8.96 24.768 22.698666-1.408 12.416-9.664 19.306667-24.746667 20.693334H488.064c-55.04-2.816-102.506667-19.328-142.378667-49.578667-1.408 1.365333-3.477333 2.773333-6.186666 4.096-22.058667 20.693333-42.666667 34.410667-61.909334 41.322667-12.373333 4.138667-21.333333 0.682667-26.816-10.325334-5.546667-13.781333-2.794667-23.424 8.256-28.928 41.28-15.104 62.549333-37.162667 63.936-66.069333v-111.552c0-13.738667-6.165333-20.650667-18.56-20.650667h-41.258666c-11.050667-1.344-17.216-8.96-18.56-22.72 1.344-12.394667 7.509333-19.285333 18.56-20.672h66.048c23.36 0 35.072 11.733333 35.072 35.114667v128.064c4.117333 49.578667 43.328 75.733333 117.610666 78.506667h249.685334z" p-id="13825" fill="#ffffff"></path></svg>