<?xml version="1.0" standalone="no"?><!DOCTYPE svg PUBLIC "-//W3C//DTD SVG 1.1//EN" "http://www.w3.org/Graphics/SVG/1.1/DTD/svg11.dtd"><svg t="1528365309404" class="icon" style="" viewBox="0 0 1030 1024" version="1.1" xmlns="http://www.w3.org/2000/svg" p-id="1698" xmlns:xlink="http://www.w3.org/1999/xlink" width="201.171875" height="200"><defs><style type="text/css"></style></defs><path d="M391.85066667 430.08c-9.28426667 0-18.0224-3.82293333-24.02986667-12.01493333L337.23733333 378.19733333c-9.8304-13.1072-7.64586667-32.22186667 5.46133334-42.05226666 13.1072-9.8304 32.22186667-7.64586667 42.05226666 5.46133333l30.58346667 39.86773333c9.8304 13.1072 7.64586667 32.22186667-5.46133333 42.05226667-5.46133333 4.36906667-11.4688 6.5536-18.0224 6.5536z" p-id="1699" fill="#ffffff"></path><path d="M455.74826667 430.08c-6.5536 0-13.1072-2.18453333-18.56853334-6.5536-13.1072-10.37653333-15.29173333-28.94506667-5.46133333-42.05226667l31.1296-39.86773333c10.37653333-13.1072 28.94506667-15.29173333 42.05226667-5.46133333 13.1072 10.37653333 15.29173333 28.94506667 5.46133333 42.05226666L479.232 418.6112c-5.46133333 7.64586667-14.7456 11.4688-23.48373333 11.4688z" p-id="1700" fill="#ffffff"></path><path d="M507.63093333 449.19466667H334.50666667c-16.384 0-30.03733333-13.65333333-30.03733334-30.03733334s13.65333333-30.03733333 30.03733334-30.03733333h173.12426666c16.384 0 30.03733333 13.65333333 30.03733334 30.03733333s-13.65333333 30.03733333-30.03733334 30.03733334zM507.63093333 546.95253333H334.50666667c-16.384 0-30.03733333-13.65333333-30.03733334-30.03733333s13.65333333-30.03733333 30.03733334-30.03733333h173.12426666c16.384 0 30.03733333 13.65333333 30.03733334 30.03733333s-13.65333333 30.03733333-30.03733334 30.03733333z" p-id="1701" fill="#ffffff"></path><path d="M421.34186667 614.67306667c-16.384 0-30.03733333-13.65333333-30.03733334-30.03733334V419.15733333c0-16.384 13.65333333-30.03733333 30.03733334-30.03733333s30.03733333 13.65333333 30.03733333 30.03733333v165.4784c0 16.384-13.65333333 30.03733333-30.03733333 30.03733334z" p-id="1702" fill="#ffffff"></path><path d="M675.84 241.11786667v217.36106666h170.3936l118.51093333 178.5856v75.3664h-72.63573333v54.61333334c0 49.69813333-40.41386667 90.112-90.112 90.112s-90.112-40.41386667-90.112-90.112v-54.61333334H312.1152v54.61333334c0 49.69813333-40.41386667 90.112-90.112 90.112s-90.112-40.41386667-90.112-90.112v-54.61333334H59.25546667V241.11786667H675.84m18.56853333-54.61333334H40.68693333c-20.20693333 0-36.0448 16.384-36.0448 36.0448v507.35786667c0 20.20693333 16.384 36.0448 36.0448 36.0448h36.0448c0 79.73546667 64.98986667 144.72533333 144.72533334 144.72533333s144.72533333-64.98986667 144.72533333-144.72533333h290.54293333c0 79.73546667 64.98986667 144.72533333 144.72533334 144.72533333s144.72533333-64.98986667 144.72533333-144.72533333h36.0448c20.20693333 0 36.0448-16.384 36.0448-36.0448v-102.67306667c1.09226667-3.2768 0.54613333-6.5536-1.6384-9.28426666l-137.07946667-206.4384c-4.36906667-5.46133333-9.28426667-7.64586667-15.29173333-7.64586667H730.45333333V222.54933333c0-20.20693333-15.83786667-36.0448-36.0448-36.0448z" p-id="1703" fill="#ffffff"></path><path d="M803.08906667 908.4928c-80.82773333 0-146.36373333-65.536-146.36373334-146.36373333s65.536-146.36373333 146.36373334-146.36373334 146.36373333 65.536 146.36373333 146.36373334-65.536 146.36373333-146.36373333 146.36373333z m0-237.568c-50.24426667 0-91.7504 40.96-91.7504 91.7504s40.96 91.7504 91.7504 91.7504 91.7504-40.96 91.7504-91.7504-40.96-91.7504-91.7504-91.7504zM221.45706667 908.4928c-80.82773333 0-146.36373333-65.536-146.36373334-146.36373333S140.62933333 615.76533333 221.45706667 615.76533333s146.36373333 65.536 146.36373333 146.36373334-66.08213333 146.36373333-146.36373333 146.36373333z m0-237.568c-50.24426667 0-91.7504 40.96-91.7504 91.7504s40.96 91.7504 91.7504 91.7504 91.7504-40.96 91.7504-91.7504-41.50613333-91.7504-91.7504-91.7504z" p-id="1704" fill="#ffffff"></path></svg>