<?xml version="1.0" standalone="no"?><!DOCTYPE svg PUBLIC "-//W3C//DTD SVG 1.1//EN" "http://www.w3.org/Graphics/SVG/1.1/DTD/svg11.dtd"><svg t="1528367808690" class="icon" style="" viewBox="0 0 1294 1024" version="1.1" xmlns="http://www.w3.org/2000/svg" p-id="11654" xmlns:xlink="http://www.w3.org/1999/xlink" width="252.734375" height="200"><defs><style type="text/css"></style></defs><path d="M826.028178 645.045106c88.693053-161.26482 120.946646-314.457186 120.946646-314.457186l-16.129159 0 0 0-137.069506 0-145.134086 0 0-112.888366 354.773785 0 0-48.374879L648.642073 169.324675 648.642073 0 487.383553 0l0 169.324675-322.520191 0 0 48.374879 322.520191 0 0 112.888366L213.239815 330.58792l0 48.376454 556.348904 0c0 8.06458 0 8.06458-8.06458 16.12286 0 56.441033-40.311874 137.074231-72.563893 201.575119C277.745428 435.402258 156.797207 532.161465 124.545188 548.284325-149.593825 741.794864 108.423903 983.689732 148.740502 975.625152c290.269747 64.504038 475.714132-56.441033 604.725358-209.641274 8.05828 8.066154 16.12286 8.066154 24.18744 8.066154 88.693053 48.374879 516.032306 249.949998 516.032306 249.949998L1293.685605 782.114613C1229.178417 782.114613 995.351278 701.48299 826.028178 645.045106L826.028178 645.045106zM616.390054 717.609c-201.575119 258.016153-443.460538 177.386105-483.778712 161.255371-96.751333-24.18744-129.004927-201.575119-8.06458-258.016153 201.575119-64.499314 378.962799 8.06458 507.97245 72.570193C624.453059 709.54442 616.390054 717.609 616.390054 717.609L616.390054 717.609zM616.390054 717.609" p-id="11655" fill="#ffffff"></path></svg>