<?xml version="1.0" standalone="no"?><!DOCTYPE svg PUBLIC "-//W3C//DTD SVG 1.1//EN" "http://www.w3.org/Graphics/SVG/1.1/DTD/svg11.dtd"><svg t="1528366751265" class="icon" style="" viewBox="0 0 1024 1024" version="1.1" xmlns="http://www.w3.org/2000/svg" p-id="2905" xmlns:xlink="http://www.w3.org/1999/xlink" width="200" height="200"><defs><style type="text/css"></style></defs><path d="M950 866H134c-18 0-30-12-30-30V128c0-18-12-30-30-30s-30 12-30 30v738c0 30 24 60 60 60h840c18 0 30-12 30-30s-12-30-24-30zM194 632h60c6 0 18-6 24-18l60-102 90 204 18 18c12 6 30-6 36-18l120-396 84 288c0 12 12 24 30 24h150c12 18 30 30 48 30 30 0 60-24 60-60s-24-60-60-60c-24 0-42 12-48 30H734L626 206c0-12-18-24-36-18-6 0-12 6-12 6s-6 6-6 12L446 620l-78-180c0-6-6-6-6-12-6-6-18-6-30 0-6 0-12 6-12 12l-84 132h-42c-18 0-30 12-30 30 0 12 12 30 30 30z" p-id="2906" fill="#ffffff"></path></svg>