<?xml version="1.0" standalone="no"?><!DOCTYPE svg PUBLIC "-//W3C//DTD SVG 1.1//EN" "http://www.w3.org/Graphics/SVG/1.1/DTD/svg11.dtd"><svg t="1528366773814" class="icon" style="" viewBox="0 0 1024 1024" version="1.1" xmlns="http://www.w3.org/2000/svg" p-id="3082" xmlns:xlink="http://www.w3.org/1999/xlink" width="200" height="200"><defs><style type="text/css"></style></defs><path d="M772.962 603.354c0.158 9.134-0.223-123.538-0.223-123.538l125.821 0.47 0.801 128.04h24.642v313.857l-821.001 1.734-0.239-324.738h19.284V483.491h125.044l0.982 119.757 524.889 0.106z m-558.43 35.577l-1.535-130.333-49.943-0.369-0.001 132.625h-16.109l0.168 242.379 732.714-0.341V640.076H857.03l1.099-131.168-58.759 0.294 1.122 132.695-585.96-2.966z" fill="#ffffff" p-id="3083"></path><path d="M189.817 169.961h2.928v-17.24c0-28.521 20.273-51.721 45.195-51.721h301.3c24.922 0 45.195 23.201 45.195 51.721v17.24h17.816c8.32 0 15.065 7.72 15.065 17.242 0 9.521-6.745 17.241-15.065 17.241h-17.816v17.24c0 28.521-20.273 51.721-45.195 51.721h-301.3c-24.922 0-45.195-23.201-45.195-51.721v-17.241h-2.927c-8.305 0-15.065 7.736-15.065 17.24v68.963c0 9.504 6.761 17.241 15.065 17.241h171.349c0.692 0 1.37 0.057 2.037 0.161 23.339 1.997 41.796 24.349 41.796 51.56v50.431c9.117 5.932 15.282 17.131 15.282 29.98v155.164c0 19.042-13.529 34.48-30.167 34.48-16.64 0-30.167-15.439-30.167-34.48V440.017c0-12.68 6.003-23.754 14.924-29.744v-50.666c0-9.505-6.76-17.242-15.065-17.242h13.535-152.711c-55.736 0-76.008-23.201-76.008-51.721v-68.962c-0.002-28.521 20.272-51.721 45.194-51.721z m33.057 51.721c0 9.504 6.76 17.242 15.065 17.242h301.3c8.305 0 15.064-7.737 15.064-17.242V152.72c0-9.505-6.76-17.241-15.064-17.241h-301.3c-8.305 0-15.064 7.736-15.064 17.241l-0.001 68.962z" fill="#ffffff" p-id="3084"></path><path d="M731.923 630.497c-7.609 6.134-17.091 8.854-26.717 7.733l-29.926-3.486c-19.862-2.314-34.193-20.635-31.914-40.8l29.661-262.421-48.339-5.676c-9.625-1.121-18.254-5.952-24.296-13.676-6.042-7.725-8.721-17.353-7.616-27.124l4.328-38.288c2.257-19.583 20.985-34.683 40.187-32.4l176.751 20.592c5.075 0.591 9.508 3.718 11.876 8.269l44.531 86.823c2.656 5.125 2.227 11.285-0.971 16.043-3.197 4.758-8.799 7.256-14.399 6.602l-79.975-9.317-29.71 262.461c-1.056 9.73-5.863 18.531-13.471 24.665M629.678 246.411c-0.683 0.551-1.883 1.76-2.077 3.853l-4.328 38.288c-0.192 2.093 0.62 3.537 1.162 4.231 0.542 0.693 1.735 1.912 3.795 2.108l63.564 7.45c8.4 0.978 14.442 8.703 13.478 17.231l-31.407 277.88c-0.352 3.109 1.895 5.981 4.957 6.338l29.926 3.486c4.025 0.469 5.732-0.907 6.242-5.033l31.456-277.919c0.463-4.086 2.527-7.851 5.698-10.406a15.206 15.206 0 0 1 11.274-3.277l66.589 7.757-27.414-53.552-168.75-19.614a5.622 5.622 0 0 0-4.165 1.179" fill="#ffffff" p-id="3085"></path><path d="M619.54 621.154c-2.123 0-4.343-0.588-6.273-1.812l-33.339-21.113-59.296-8.327c-3.859-0.539-7.237-2.988-8.974-6.515l-30.975-62.21c-2.316-4.654-1.447-10.286 2.22-13.961l21.277-21.602a11.756 11.756 0 0 1 16.79 0l25.185 25.57 16.935-17.194-25.185-25.57c-2.22-2.253-3.474-5.339-3.474-8.523 0-3.184 1.254-6.271 3.474-8.523l21.277-21.553c3.619-3.673 9.166-4.555 13.751-2.254l61.323 31.448c3.473 1.763 5.886 5.192 6.416 9.111l8.202 60.299 20.457 34.436c3.377 5.682 1.544 13.128-4.053 16.557a11.76 11.76 0 0 1-16.307-4.115l-21.711-36.542c-0.82-1.421-1.399-2.988-1.592-4.604l-7.672-56.527-48.102-24.688-6.851 6.955 25.185 25.57c4.631 4.702 4.631 12.344 0 17.046l-33.725 34.24a11.756 11.756 0 0 1-16.79 0l-25.185-25.57-6.802 6.907 24.317 48.789 55.63 7.788c1.64 0.196 3.233 0.833 4.632 1.715l35.51 22.484c5.548 3.527 7.285 10.923 3.811 16.606-2.27 3.673-6.129 5.682-10.086 5.682" fill="#ffffff" p-id="3086"></path></svg>