<?xml version="1.0" standalone="no"?><!DOCTYPE svg PUBLIC "-//W3C//DTD SVG 1.1//EN" "http://www.w3.org/Graphics/SVG/1.1/DTD/svg11.dtd"><svg t="1528365846366" class="icon" style="" viewBox="0 0 1024 1024" version="1.1" xmlns="http://www.w3.org/2000/svg" p-id="2257" xmlns:xlink="http://www.w3.org/1999/xlink" width="200" height="200"><defs><style type="text/css"></style></defs><path d="M213.333333 810.666667v-631.466667h546.133334v344.746667c23.893333 5.12 47.786667 13.653333 68.266666 23.893333V196.266667c0-47.786667-37.546667-85.333333-85.333333-85.333334h-512c-47.786667 0-85.333333 37.546667-85.333333 85.333334v597.333333c0 47.786667 37.546667 85.333333 85.333333 85.333333h295.253333c-13.653333-20.48-23.893333-44.373333-30.72-68.266666H213.333333z m435.2-324.266667H324.266667c-13.653333 0-25.6 5.12-25.6 11.946667v8.533333c0 6.826667 11.946667 13.653333 25.6 13.653333h324.266666c13.653333 0 25.6-5.12 25.6-13.653333v-8.533333c0-6.826667-11.946667-11.946667-25.6-11.946667z m25.6-124.586667c0-6.826667-11.946667-11.946667-25.6-11.946666H324.266667c-13.653333 0-25.6 5.12-25.6 11.946666v8.533334c0 6.826667 11.946667 13.653333 25.6 13.653333h324.266666c13.653333 0 25.6-5.12 25.6-13.653333v-8.533334z m51.2 226.986667c-93.866667 0-170.666667 76.8-170.666666 170.666667s76.8 170.666667 170.666666 170.666666 170.666667-76.8 170.666667-170.666666-76.8-170.666667-170.666667-170.666667z m0 307.2c-75.093333 0-136.533333-61.44-136.533333-136.533333s61.44-136.533333 136.533333-136.533334 136.533333 61.44 136.533334 136.533334-61.44 136.533333-136.533334 136.533333zM512 622.933333H324.266667c-13.653333 0-25.6 5.12-25.6 11.946667v8.533333c0 6.826667 11.946667 13.653333 25.6 13.653334h187.733333c13.653333 0 25.6-5.12 25.6-13.653334v-8.533333c0-6.826667-11.946667-11.946667-25.6-11.946667z" fill="#ffffff" p-id="2258"></path><path d="M802.133333 674.133333l-54.613333 83.626667h47.786667v15.36h-59.733334v23.893333h59.733334v15.36h-59.733334v49.493334h-20.48v-49.493334h-58.026666v-15.36h58.026666v-23.893333h-58.026666v-15.36h47.786666L648.533333 674.133333h23.893334l52.906666 81.92 52.906667-81.92H802.133333z" fill="#ffffff" p-id="2259"></path></svg>