<?xml version="1.0" standalone="no"?><!DOCTYPE svg PUBLIC "-//W3C//DTD SVG 1.1//EN" "http://www.w3.org/Graphics/SVG/1.1/DTD/svg11.dtd"><svg t="1528423586143" class="icon" style="" viewBox="0 0 1024 1024" version="1.1" xmlns="http://www.w3.org/2000/svg" p-id="31502" xmlns:xlink="http://www.w3.org/1999/xlink" width="200" height="200"><defs><style type="text/css"></style></defs><path d="M885.573789 377.581568l-149.429311-50.942229c-17.714454-6.031367-33.907251-28.581965-34.015721-47.301306l-0.216941-128.836297c-0.162706-45.942355-37.60241-83.35443-83.626629-83.408665l-467.905736-0.216941c-0.055259 0-0.10847 0-0.10847 0-22.169929 0-43.144636 8.694009-58.903551 24.479531-15.812127 15.785521-24.506137 36.732599-24.506137 58.956763l0 777.905092c0 15.377222 12.443403 27.821649 27.821649 27.821649s27.821649-12.443403 27.821649-27.821649l0-50.507324 116.66407 0c14.237259 45.073568 55.914474 78.030168 105.633852 78.030168s91.396593-32.956599 105.633852-78.030168l125.413338 0c13.910824 45.562708 55.859215 79.008448 105.959264 79.008448s92.048439-33.44574 105.959264-79.008448l113.730251 0 0 51.594075c0 15.378246 12.443403 27.821649 27.821649 27.821649s27.821649-12.44238 27.821649-27.821649L957.141778 477.481835C957.137685 435.098539 925.676136 391.220193 885.573789 377.581568zM344.800465 900.097062c-30.645974 0-55.642275-24.967648-55.642275-55.642275s24.996301-55.642275 55.642275-55.642275c30.646997 0 55.642275 24.967648 55.642275 55.642275S375.447463 900.097062 344.800465 900.097062zM681.805896 901.075343c-30.645974 0-55.642275-24.968671-55.642275-55.642275 0-30.674627 24.996301-55.642275 55.642275-55.642275 30.646997 0 55.642275 24.967648 55.642275 55.642275C737.44817 876.106672 712.453916 901.075343 681.805896 901.075343zM790.537296 822.066895c-10.813277-50.180889-55.371098-87.918375-108.7314-87.918375s-97.918124 37.737486-108.730377 87.918375L453.804065 822.066895c-10.379395-50.67003-55.316863-88.896656-109.0036-88.896656-53.685713 0-98.623181 38.226626-109.002576 88.896656L122.503567 822.066895 122.503567 150.311401c0-7.362688 2.879584-14.3181 8.205892-19.615757 5.270027-5.27105 12.225439-8.178263 19.561521-8.178263 0 0 0 0 0.054235 0l467.905736 0.216941c15.432481 0.026606 27.930119 12.551874 28.03859 27.90249l0.216941 128.836297c0.10847 42.329061 31.625278 86.207407 71.726601 99.819426l149.430334 50.941206c17.714454 6.03239 33.851992 28.554336 33.851992 47.24707l0 344.585059L790.537296 822.065871z" p-id="31503" fill="#ffffff"></path><path d="M783.908318 565.971216l-84.060511 0 0-89.196485c0-15.377222-12.443403-27.821649-27.821649-27.821649s-27.821649 12.443403-27.821649 27.821649l0 111.284549c0 1.549286 0.651846 2.879584 0.86981 4.347005 0 0.490164-0.272199 0.89744-0.272199 1.385557 0 15.377222 12.443403 27.821649 27.821649 27.821649l111.284549 0c15.377222 0 27.821649-12.443403 27.821649-27.821649S799.28554 565.971216 783.908318 565.971216z" p-id="31504" fill="#ffffff"></path></svg>