<?xml version="1.0" standalone="no"?><!DOCTYPE svg PUBLIC "-//W3C//DTD SVG 1.1//EN" "http://www.w3.org/Graphics/SVG/1.1/DTD/svg11.dtd"><svg t="1528427095577" class="icon" style="" viewBox="0 0 1024 1024" version="1.1" xmlns="http://www.w3.org/2000/svg" p-id="57201" xmlns:xlink="http://www.w3.org/1999/xlink" width="200" height="200"><defs><style type="text/css"></style></defs><path d="M614.4 480l96 0 0 416-96 0 0-416Z" p-id="57202" fill="#ffffff"></path><path d="M428.8 608l96 0 0 288-96 0 0-288Z" p-id="57203" fill="#ffffff"></path><path d="M800 640l96 0 0 256-96 0 0-256Z" p-id="57204" fill="#ffffff"></path><path d="M454.4 454.4 454.4 454.4c12.8-12.8 12.8-32 0-44.8L236.8 192 384 192c19.2 0 32-12.8 32-32C416 140.8 403.2 128 384 128L160 128c0 0 0 0-6.4 0 0 0-6.4 0-6.4 0C140.8 134.4 134.4 140.8 128 147.2c0 0 0 6.4 0 6.4 0 0 0 0 0 6.4L128 384c0 19.2 12.8 32 32 32S192 403.2 192 384L192 236.8l217.6 217.6C422.4 467.2 441.6 467.2 454.4 454.4z" p-id="57205" fill="#ffffff"></path></svg>