<?xml version="1.0" standalone="no"?><!DOCTYPE svg PUBLIC "-//W3C//DTD SVG 1.1//EN" "http://www.w3.org/Graphics/SVG/1.1/DTD/svg11.dtd"><svg t="1528366732995" class="icon" style="" viewBox="0 0 1024 1024" version="1.1" xmlns="http://www.w3.org/2000/svg" p-id="2652" xmlns:xlink="http://www.w3.org/1999/xlink" width="200" height="200"><defs><style type="text/css"></style></defs><path d="M678.4 992c-6.4 0-19.2-6.4-25.6-12.8 0 0-19.2-19.2-44.8-38.4-70.4-51.2-128-51.2-198.4 0-25.6 19.2-38.4 38.4-44.8 38.4-12.8 12.8-25.6 12.8-38.4 6.4l-121.6-70.4c-12.8 0-19.2-19.2-12.8-32 6.4-6.4 12.8-38.4 12.8-64 0-44.8-19.2-89.6-51.2-128-25.6-32-70.4-57.6-115.2-57.6-12.8 0-25.6-12.8-32-25.6 0-19.2-6.4-64-6.4-96s6.4-76.8 12.8-96c0-12.8 12.8-25.6 32-25.6 38.4 0 83.2-19.2 115.2-57.6 32-32 44.8-76.8 44.8-121.6 0-25.6-12.8-57.6-12.8-64-6.4-19.2 0-32 12.8-44.8l128-70.4c12.8-6.4 32-6.4 38.4 6.4 0 0 19.2 19.2 44.8 38.4 70.4 51.2 121.6 51.2 192 0 12.8-12.8 32-25.6 44.8-38.4l6.4-6.4h32l121.6 70.4c19.2 12.8 25.6 25.6 19.2 44.8-6.4 6.4-12.8 38.4-12.8 64 0 44.8 19.2 89.6 51.2 128 32 32 70.4 51.2 115.2 57.6 12.8 0 25.6 12.8 32 25.6 0 6.4 6.4 51.2 6.4 89.6 0 32-6.4 70.4-12.8 96 0 12.8-12.8 25.6-32 25.6-44.8 6.4-89.6 25.6-115.2 57.6-32 32-51.2 76.8-51.2 128 0 25.6 12.8 57.6 12.8 64 6.4 12.8 0 32-12.8 38.4l-121.6 70.4h-12.8zM512 838.4c44.8 0 89.6 19.2 134.4 51.2 12.8 12.8 25.6 19.2 32 32l83.2-44.8c-6.4-19.2-6.4-38.4-6.4-64 0-64 25.6-121.6 70.4-166.4 38.4-38.4 83.2-64 134.4-70.4V512c0-19.2 0-44.8-6.4-57.6-51.2-6.4-96-32-134.4-70.4-44.8-44.8-70.4-108.8-70.4-166.4 0-25.6 6.4-44.8 6.4-64l-76.8-44.8c-12.8 12.8-25.6 19.2-32 25.6-96 64-172.8 64-268.8 0l-32-32-83.2 44.8c6.4 19.2 6.4 38.4 6.4 64 0 64-25.6 121.6-70.4 166.4-38.4 38.4-83.2 64-134.4 70.4v64c0 19.2 0 44.8 6.4 64 51.2 6.4 96 32 134.4 70.4 44.8 44.8 70.4 108.8 70.4 166.4 0 25.6-6.4 44.8-6.4 64l76.8 44.8c6.4-6.4 19.2-19.2 32-25.6 44.8-38.4 89.6-57.6 134.4-57.6z m473.6-236.8z" fill="#ffffff" p-id="2653"></path><path d="M512 691.2c-96 0-179.2-83.2-179.2-179.2S416 332.8 512 332.8c96 0 179.2 83.2 179.2 179.2S608 691.2 512 691.2z m0-294.4C448 396.8 396.8 448 396.8 512S448 627.2 512 627.2 627.2 576 627.2 512 576 396.8 512 396.8z" fill="#ffffff" p-id="2654"></path></svg>