<?xml version="1.0" standalone="no"?><!DOCTYPE svg PUBLIC "-//W3C//DTD SVG 1.1//EN" "http://www.w3.org/Graphics/SVG/1.1/DTD/svg11.dtd"><svg t="1528365786072" class="icon" style="" viewBox="0 0 1024 1024" version="1.1" xmlns="http://www.w3.org/2000/svg" p-id="1607" xmlns:xlink="http://www.w3.org/1999/xlink" width="200" height="200"><defs><style type="text/css"></style></defs><path d="M512.001824 415.426129c53.231847 0 96.538598 43.30675 96.538598 96.538598s-43.30675 96.538598-96.538598 96.538598-96.538598-43.30675-96.538597-96.538598 43.30675-96.538598 96.538597-96.538598m0-44.821057c-78.071349 0-141.359655 63.289522-141.359655 141.359655s63.289522 141.359655 141.359655 141.359655 141.359655-63.289522 141.359656-141.359655-63.288306-141.359655-141.359656-141.359655z" p-id="1608" fill="#ffffff"></path><path d="M512.001824 143.049111c49.823744 0 98.131965 9.747516 143.585505 28.972526 43.924636 18.579149 83.382979 45.184734 117.277915 79.080887 33.894936 33.894936 60.501738 73.353279 79.080887 117.277915 19.22501 45.452323 28.972526 93.76176 28.972526 143.585504s-9.747516 98.131965-28.972526 143.585504c-18.579149 43.924636-45.184734 83.382979-79.080887 117.277916-33.894936 33.894936-73.353279 60.501738-117.277915 79.080887-45.452323 19.22501-93.76176 28.972526-143.585505 28.972526s-98.131965-9.747516-143.585504-28.972526c-43.924636-18.579149-83.382979-45.184734-117.277915-79.080887-33.894936-33.894936-60.501738-73.353279-79.080887-117.277916-19.22501-45.452323-28.972526-93.76176-28.972526-143.585504s9.747516-98.131965 28.972526-143.585504c18.579149-43.924636 45.184734-83.382979 79.080887-117.277915s73.353279-60.501738 117.277915-79.080887c45.453539-19.22501 93.76176-28.972526 143.585504-28.972526m0-44.821057c-228.501035 0-413.736673 185.236855-413.736673 413.736673s185.236855 413.736673 413.736673 413.736673S925.738498 740.465762 925.738498 511.964727 740.502859 98.228054 512.001824 98.228054z" p-id="1609" fill="#ffffff"></path><path d="M512.001824 182.96357c7.53383 0 15.001979 0.277319 22.410529 0.77479V53.340099h-44.821057v130.398261c7.407333-0.497471 14.875483-0.77479 22.410528-0.77479zM534.412353 243.770602a299.998223 299.998223 0 0 0-44.821057 0v245.784813H243.806483a299.998223 299.998223 0 0 0 0 44.821057h245.784813v233.621704a299.998223 299.998223 0 0 0 44.821057 0V534.375256h245.783597a299.998223 299.998223 0 0 0 0-44.821058H534.412353V243.770602zM840.226975 489.554198c0.498687 7.407333 0.77479 14.876699 0.77479 22.410529s-0.277319 15.001979-0.77479 22.410529H970.625236v-44.821058H840.226975zM183.000668 511.964727c0-7.53383 0.277319-15.001979 0.776006-22.410529H53.377197v44.821058H183.776674c-0.498687-7.407333-0.776006-14.876699-0.776006-22.410529zM512.001824 840.965884c-7.53383 0-15.001979-0.277319-22.410528-0.77479v130.398261h44.821057V840.191094c-7.40855 0.497471-14.876699 0.77479-22.410529 0.77479z" p-id="1610" fill="#ffffff"></path></svg>