<?xml version="1.0" standalone="no"?><!DOCTYPE svg PUBLIC "-//W3C//DTD SVG 1.1//EN" "http://www.w3.org/Graphics/SVG/1.1/DTD/svg11.dtd"><svg t="1528426374683" class="icon" style="" viewBox="0 0 1024 1024" version="1.1" xmlns="http://www.w3.org/2000/svg" p-id="53928" xmlns:xlink="http://www.w3.org/1999/xlink" width="200" height="200"><defs><style type="text/css"></style></defs><path d="M742.72 645.6h92.448v41.984h-114.624v62.976h114.624v41.92h-114.624v104.608h-46.016v-104.608h-115.52v-41.92h115.52v-62.976h-115.52v-41.984h92.384l-107.52-157.056 49.152-0.192 104.16 155.936 103.936-155.936 49.248 0.192-107.648 157.056z m-283.36-133.248c19.744 0 38.88-0.928 57.152-2.72v28.64a705.28 705.28 0 0 1-57.152 2.304c-93.472 0-176.448-17.984-228.576-45.728v131.456c0 47.488 102.336 86.016 228.576 86.016 19.744 0 38.88-0.928 57.152-2.72v28.672c-18.464 1.504-37.6 2.272-57.152 2.272-93.472 0-176.448-17.984-228.576-45.728v126.656c31.328 33.28 129.024 61.952 228.576 61.952 19.744 0 38.88-0.928 57.152-2.72v28.992c-18.464 1.504-37.6 2.272-57.152 2.272-157.792 0-285.696-51.168-285.696-114.304V226.304c0-63.168 127.904-114.304 285.696-114.304 157.824 0 285.728 51.168 285.728 114.304v200h-57.152V294.88c-52.128 27.712-135.136 45.696-228.576 45.696-93.472 0-176.448-17.984-228.576-45.728v131.456c0.032 47.52 102.368 86.048 228.576 86.048zM230.816 226.304c0 47.328 102.336 85.696 228.576 85.696s228.576-38.368 228.576-85.696c0-47.36-102.336-85.76-228.576-85.76s-228.576 38.4-228.576 85.76z" p-id="53929" fill="#ffffff"></path></svg>